<svg width="438" height="277" viewBox="0 0 438 277" fill="none" xmlns="http://www.w3.org/2000/svg">
<path d="M183.032 256.007L97.0014 195.184L167.97 197.308L183.032 256.007Z" fill="white"/>
<path d="M98.6449 195.734L167.579 197.797L182.21 254.814L98.6449 195.734Z" stroke="black" stroke-opacity="0.8"/>
<rect x="0.5" y="0.5" width="437" height="198" rx="11.5" fill="white"/>
<rect x="0.5" y="0.5" width="437" height="198" rx="11.5" stroke="black"/>
<path d="M184.486 42.5653C184.418 41.8778 184.125 41.3437 183.608 40.9631C183.091 40.5824 182.389 40.392 181.503 40.392C180.901 40.392 180.392 40.4773 179.977 40.6477C179.563 40.8125 179.244 41.0426 179.023 41.3381C178.807 41.6335 178.699 41.9688 178.699 42.3438C178.688 42.6562 178.753 42.929 178.895 43.1619C179.043 43.3949 179.244 43.5966 179.5 43.767C179.756 43.9318 180.051 44.0767 180.386 44.2017C180.722 44.321 181.08 44.4233 181.46 44.5085L183.028 44.8835C183.79 45.054 184.489 45.2812 185.125 45.5653C185.761 45.8494 186.313 46.1989 186.778 46.6136C187.244 47.0284 187.605 47.517 187.861 48.0795C188.122 48.642 188.256 49.2869 188.261 50.0142C188.256 51.0824 187.983 52.0085 187.443 52.7926C186.909 53.571 186.136 54.1761 185.125 54.608C184.119 55.0341 182.906 55.2472 181.486 55.2472C180.077 55.2472 178.849 55.0312 177.804 54.5994C176.764 54.1676 175.952 53.5284 175.366 52.6818C174.787 51.8295 174.483 50.7756 174.455 49.5199H178.026C178.065 50.1051 178.233 50.5937 178.528 50.9858C178.83 51.3722 179.23 51.6648 179.73 51.8636C180.236 52.0568 180.807 52.1534 181.443 52.1534C182.068 52.1534 182.611 52.0625 183.071 51.8807C183.537 51.6989 183.898 51.446 184.153 51.1222C184.409 50.7983 184.537 50.4261 184.537 50.0057C184.537 49.6136 184.42 49.2841 184.188 49.017C183.96 48.75 183.625 48.5227 183.182 48.3352C182.744 48.1477 182.207 47.9773 181.571 47.8239L179.67 47.3466C178.199 46.9886 177.037 46.429 176.185 45.6676C175.332 44.9062 174.909 43.8807 174.915 42.5909C174.909 41.5341 175.19 40.6108 175.759 39.821C176.332 39.0312 177.119 38.4148 178.119 37.9716C179.119 37.5284 180.256 37.3068 181.528 37.3068C182.824 37.3068 183.955 37.5284 184.92 37.9716C185.892 38.4148 186.648 39.0312 187.188 39.821C187.727 40.6108 188.006 41.5256 188.023 42.5653H184.486ZM199.07 49.4261V41.9091H202.701V55H199.215V52.6222H199.079C198.783 53.3892 198.292 54.0057 197.604 54.4716C196.923 54.9375 196.09 55.1705 195.107 55.1705C194.232 55.1705 193.462 54.9716 192.798 54.5739C192.133 54.1761 191.613 53.6108 191.238 52.8778C190.869 52.1449 190.681 51.267 190.675 50.2443V41.9091H194.306V49.5966C194.312 50.3693 194.519 50.9801 194.928 51.429C195.337 51.8778 195.886 52.1023 196.573 52.1023C197.011 52.1023 197.42 52.0028 197.8 51.804C198.181 51.5994 198.488 51.2983 198.721 50.9006C198.96 50.5028 199.076 50.0114 199.07 49.4261ZM205.673 55V37.5455H209.304V44.108H209.415C209.574 43.7557 209.804 43.3977 210.105 43.0341C210.412 42.6648 210.81 42.358 211.298 42.1136C211.793 41.8636 212.406 41.7386 213.139 41.7386C214.094 41.7386 214.974 41.9886 215.781 42.4886C216.588 42.983 217.233 43.7301 217.716 44.7301C218.199 45.7244 218.44 46.9716 218.44 48.4716C218.44 49.9318 218.205 51.1648 217.733 52.1705C217.267 53.1705 216.631 53.929 215.824 54.446C215.023 54.9574 214.125 55.2131 213.131 55.2131C212.426 55.2131 211.827 55.0966 211.332 54.8636C210.844 54.6307 210.443 54.3381 210.131 53.9858C209.818 53.6278 209.58 53.267 209.415 52.9034H209.253V55H205.673ZM209.227 48.4545C209.227 49.233 209.335 49.9119 209.551 50.4915C209.767 51.071 210.08 51.5227 210.489 51.8466C210.898 52.1648 211.395 52.3239 211.98 52.3239C212.571 52.3239 213.071 52.1619 213.48 51.8381C213.889 51.5085 214.199 51.054 214.409 50.4744C214.625 49.8892 214.733 49.2159 214.733 48.4545C214.733 47.6989 214.628 47.0341 214.418 46.4602C214.207 45.8864 213.898 45.4375 213.489 45.1136C213.08 44.7898 212.577 44.6278 211.98 44.6278C211.389 44.6278 210.889 44.7841 210.48 45.0966C210.077 45.4091 209.767 45.8523 209.551 46.4261C209.335 47 209.227 47.6761 209.227 48.4545ZM220.863 41.9091H224.494V55.6477C224.494 56.6591 224.295 57.4773 223.897 58.1023C223.499 58.7273 222.928 59.1847 222.184 59.4744C221.445 59.7642 220.562 59.9091 219.533 59.9091C219.408 59.9091 219.289 59.9063 219.175 59.9006C219.056 59.9006 218.931 59.8977 218.8 59.892V57.054C218.897 57.0597 218.982 57.0625 219.056 57.0625C219.124 57.0682 219.198 57.071 219.278 57.071C219.863 57.071 220.272 56.946 220.505 56.696C220.744 56.4517 220.863 56.0824 220.863 55.5881V41.9091ZM222.67 40.2216C222.136 40.2216 221.675 40.0426 221.289 39.6847C220.903 39.321 220.71 38.8864 220.71 38.3807C220.71 37.8807 220.903 37.4517 221.289 37.0938C221.675 36.7301 222.136 36.5483 222.67 36.5483C223.215 36.5483 223.678 36.7301 224.059 37.0938C224.445 37.4517 224.638 37.8807 224.638 38.3807C224.638 38.8864 224.445 39.321 224.059 39.6847C223.678 40.0426 223.215 40.2216 222.67 40.2216ZM233.368 55.2557C232.021 55.2557 230.862 54.983 229.891 54.4375C228.925 53.8864 228.18 53.108 227.658 52.1023C227.135 51.0909 226.874 49.8949 226.874 48.5142C226.874 47.1676 227.135 45.9858 227.658 44.9688C228.18 43.9517 228.916 43.1591 229.865 42.5909C230.82 42.0227 231.939 41.7386 233.223 41.7386C234.087 41.7386 234.891 41.8778 235.635 42.1562C236.385 42.429 237.038 42.8409 237.595 43.392C238.158 43.9432 238.595 44.6364 238.908 45.4716C239.22 46.3011 239.376 47.2727 239.376 48.3864V49.3835H228.322V47.1335H235.959C235.959 46.6108 235.845 46.1477 235.618 45.7443C235.391 45.3409 235.075 45.0256 234.672 44.7983C234.274 44.5653 233.811 44.4489 233.283 44.4489C232.732 44.4489 232.243 44.5767 231.817 44.8324C231.396 45.0824 231.067 45.4205 230.828 45.8466C230.589 46.267 230.467 46.7358 230.462 47.2528V49.392C230.462 50.0398 230.581 50.5994 230.82 51.071C231.064 51.5426 231.408 51.9062 231.851 52.1619C232.294 52.4176 232.82 52.5455 233.428 52.5455C233.831 52.5455 234.2 52.4886 234.536 52.375C234.871 52.2614 235.158 52.0909 235.396 51.8636C235.635 51.6364 235.817 51.358 235.942 51.0284L239.3 51.25C239.129 52.0568 238.78 52.7614 238.251 53.3636C237.729 53.9602 237.053 54.4261 236.223 54.7614C235.399 55.0909 234.447 55.2557 233.368 55.2557ZM247.661 55.2557C246.32 55.2557 245.166 54.9716 244.2 54.4034C243.24 53.8295 242.501 53.0341 241.984 52.017C241.473 51 241.217 49.8295 241.217 48.5057C241.217 47.1648 241.476 45.9886 241.993 44.9773C242.516 43.9602 243.257 43.1676 244.217 42.5994C245.178 42.0256 246.32 41.7386 247.643 41.7386C248.786 41.7386 249.786 41.946 250.643 42.3608C251.501 42.7756 252.18 43.358 252.68 44.108C253.18 44.858 253.456 45.7386 253.507 46.75H250.081C249.984 46.0966 249.729 45.571 249.314 45.1733C248.905 44.7699 248.368 44.5682 247.703 44.5682C247.141 44.5682 246.649 44.7216 246.229 45.0284C245.814 45.3295 245.49 45.7699 245.257 46.3494C245.024 46.929 244.908 47.6307 244.908 48.4545C244.908 49.2898 245.021 50 245.249 50.5852C245.482 51.1705 245.808 51.6165 246.229 51.9233C246.649 52.2301 247.141 52.3835 247.703 52.3835C248.118 52.3835 248.49 52.2983 248.82 52.1278C249.155 51.9574 249.43 51.7102 249.646 51.3864C249.868 51.0568 250.013 50.6619 250.081 50.2017H253.507C253.45 51.2017 253.178 52.0824 252.689 52.8438C252.206 53.5994 251.538 54.1903 250.686 54.6165C249.834 55.0426 248.825 55.2557 247.661 55.2557ZM262.795 41.9091V44.6364H254.911V41.9091H262.795ZM256.701 38.7727H260.332V50.9773C260.332 51.3125 260.383 51.5739 260.485 51.7614C260.587 51.9432 260.729 52.071 260.911 52.1449C261.099 52.2187 261.315 52.2557 261.559 52.2557C261.729 52.2557 261.9 52.2415 262.07 52.2131C262.241 52.179 262.371 52.1534 262.462 52.1364L263.033 54.8381C262.852 54.8949 262.596 54.9602 262.266 55.0341C261.937 55.1136 261.536 55.1619 261.065 55.179C260.19 55.2131 259.423 55.0966 258.763 54.8295C258.11 54.5625 257.602 54.1477 257.238 53.5852C256.874 53.0227 256.695 52.3125 256.701 51.4545V38.7727Z" fill="black"/>
<path d="M46.5706 97.179C45.8973 97.1747 45.2474 97.0618 44.621 96.8402C43.9988 96.6186 43.4406 96.2585 42.9463 95.7599C42.452 95.2614 42.0599 94.6009 41.7702 93.7784C41.4846 92.956 41.3419 91.946 41.3419 90.7486C41.3461 89.6491 41.4719 88.6669 41.719 87.8018C41.9704 86.9325 42.3284 86.1953 42.7929 85.5902C43.2616 84.9851 43.822 84.5249 44.474 84.2095C45.126 83.8899 45.8568 83.7301 46.6665 83.7301C47.54 83.7301 48.3113 83.9006 48.9804 84.2415C49.6494 84.5781 50.1863 85.0362 50.5912 85.6158C51.0003 86.1953 51.2474 86.8452 51.3327 87.5653H48.6032C48.4967 87.1094 48.273 86.7514 47.9321 86.4915C47.5912 86.2315 47.1693 86.1016 46.6665 86.1016C45.8142 86.1016 45.1665 86.4723 44.7233 87.2138C44.2844 87.9553 44.0606 88.9631 44.0521 90.2372H44.1416C44.3376 89.8494 44.6018 89.5192 44.9342 89.2464C45.2709 88.9695 45.6523 88.7585 46.0784 88.6136C46.5088 88.4645 46.9626 88.3899 47.4399 88.3899C48.2155 88.3899 48.9058 88.5732 49.5109 88.9396C50.116 89.3018 50.5933 89.8004 50.9427 90.4354C51.2922 91.0703 51.4669 91.7969 51.4669 92.6151C51.4669 93.5014 51.2602 94.2898 50.8469 94.9801C50.4378 95.6705 49.8646 96.2116 49.1274 96.6037C48.3944 96.9915 47.5422 97.1832 46.5706 97.179ZM46.5578 95.0057C46.9839 95.0057 47.3653 94.9034 47.702 94.6989C48.0386 94.4943 48.3028 94.2173 48.4946 93.8679C48.6863 93.5185 48.7822 93.1264 48.7822 92.6918C48.7822 92.2571 48.6863 91.8672 48.4946 91.522C48.3071 91.1768 48.0471 90.902 47.7148 90.6974C47.3824 90.4929 47.0031 90.3906 46.577 90.3906C46.2574 90.3906 45.9612 90.4503 45.6885 90.5696C45.42 90.6889 45.1835 90.8551 44.979 91.0682C44.7787 91.2812 44.621 91.5284 44.5059 91.8097C44.3909 92.0866 44.3334 92.3828 44.3334 92.6982C44.3334 93.12 44.4292 93.5057 44.621 93.8551C44.817 94.2045 45.0812 94.4837 45.4136 94.6925C45.7503 94.9013 46.1317 95.0057 46.5578 95.0057ZM58.5621 97.2876C57.4626 97.2834 56.5166 97.0128 55.724 96.4759C54.9356 95.9389 54.3284 95.1612 53.9023 94.1428C53.4804 93.1243 53.2716 91.8991 53.2758 90.4673C53.2758 89.0398 53.4868 87.8232 53.9086 86.8175C54.3348 85.8118 54.942 85.0469 55.7304 84.5227C56.523 83.9943 57.4669 83.7301 58.5621 83.7301C59.6572 83.7301 60.599 83.9943 61.3873 84.5227C62.18 85.0511 62.7893 85.8182 63.2155 86.8239C63.6416 87.8253 63.8525 89.0398 63.8483 90.4673C63.8483 91.9034 63.6352 93.1307 63.2091 94.1491C62.7872 95.1676 62.1821 95.9453 61.3937 96.4822C60.6054 97.0192 59.6615 97.2876 58.5621 97.2876ZM58.5621 94.9929C59.3121 94.9929 59.9108 94.6158 60.3582 93.8615C60.8057 93.1072 61.0273 91.9759 61.023 90.4673C61.023 89.4744 60.9207 88.6477 60.7162 87.9872C60.5159 87.3267 60.2304 86.8303 59.8596 86.4979C59.4932 86.1655 59.0606 85.9993 58.5621 85.9993C57.8163 85.9993 57.2197 86.3722 56.7723 87.1179C56.3248 87.8636 56.099 88.9801 56.0947 90.4673C56.0947 91.473 56.1949 92.3125 56.3952 92.9858C56.5997 93.6548 56.8873 94.1577 57.2581 94.4943C57.6288 94.8267 58.0635 94.9929 58.5621 94.9929ZM70.9546 97.2876C69.8552 97.2834 68.9092 97.0128 68.1166 96.4759C67.3282 95.9389 66.721 95.1612 66.2948 94.1428C65.873 93.1243 65.6642 91.8991 65.6684 90.4673C65.6684 89.0398 65.8794 87.8232 66.3012 86.8175C66.7274 85.8118 67.3346 85.0469 68.123 84.5227C68.9156 83.9943 69.8595 83.7301 70.9546 83.7301C72.0498 83.7301 72.9916 83.9943 73.7799 84.5227C74.5725 85.0511 75.1819 85.8182 75.608 86.8239C76.0342 87.8253 76.2451 89.0398 76.2409 90.4673C76.2409 91.9034 76.0278 93.1307 75.6017 94.1491C75.1798 95.1676 74.5747 95.9453 73.7863 96.4822C72.998 97.0192 72.0541 97.2876 70.9546 97.2876ZM70.9546 94.9929C71.7046 94.9929 72.3034 94.6158 72.7508 93.8615C73.1982 93.1072 73.4198 91.9759 73.4156 90.4673C73.4156 89.4744 73.3133 88.6477 73.1088 87.9872C72.9085 87.3267 72.623 86.8303 72.2522 86.4979C71.8857 86.1655 71.4532 85.9993 70.9546 85.9993C70.2089 85.9993 69.6123 86.3722 69.1649 87.1179C68.7174 87.8636 68.4916 88.9801 68.4873 90.4673C68.4873 91.473 68.5874 92.3125 68.7877 92.9858C68.9923 93.6548 69.2799 94.1577 69.6507 94.4943C70.0214 94.8267 70.4561 94.9929 70.9546 94.9929ZM85.4039 97L81.6581 83.9091H84.6816L86.8485 93.005H86.9571L89.3477 83.9091H91.9365L94.3208 93.0241H94.4358L96.6027 83.9091H99.6262L95.8804 97H93.183L90.6901 88.4411H90.5878L88.1013 97H85.4039ZM105.274 97V83.9091H108.041V94.718H113.653V97H105.274ZM119.871 97.1918C118.878 97.1918 118.02 96.9808 117.295 96.5589C116.575 96.1328 116.019 95.5405 115.627 94.782C115.235 94.0192 115.039 93.1349 115.039 92.1293C115.039 91.1151 115.235 90.2287 115.627 89.4702C116.019 88.7074 116.575 88.1151 117.295 87.6932C118.02 87.267 118.878 87.054 119.871 87.054C120.864 87.054 121.721 87.267 122.441 87.6932C123.165 88.1151 123.724 88.7074 124.116 89.4702C124.508 90.2287 124.704 91.1151 124.704 92.1293C124.704 93.1349 124.508 94.0192 124.116 94.782C123.724 95.5405 123.165 96.1328 122.441 96.5589C121.721 96.9808 120.864 97.1918 119.871 97.1918ZM119.884 95.0824C120.336 95.0824 120.713 94.9545 121.016 94.6989C121.318 94.4389 121.546 94.0852 121.699 93.6378C121.857 93.1903 121.936 92.6811 121.936 92.1101C121.936 91.5391 121.857 91.0298 121.699 90.5824C121.546 90.1349 121.318 89.7812 121.016 89.5213C120.713 89.2614 120.336 89.1314 119.884 89.1314C119.428 89.1314 119.045 89.2614 118.734 89.5213C118.427 89.7812 118.195 90.1349 118.037 90.5824C117.883 91.0298 117.807 91.5391 117.807 92.1101C117.807 92.6811 117.883 93.1903 118.037 93.6378C118.195 94.0852 118.427 94.4389 118.734 94.6989C119.045 94.9545 119.428 95.0824 119.884 95.0824ZM132.771 92.8196V87.1818H135.494V97H132.879V95.2166H132.777C132.555 95.7919 132.187 96.2543 131.671 96.6037C131.16 96.9531 130.535 97.1278 129.798 97.1278C129.142 97.1278 128.565 96.9787 128.066 96.6804C127.567 96.3821 127.177 95.9581 126.896 95.4084C126.619 94.8587 126.479 94.2003 126.474 93.4332V87.1818H129.197V92.9474C129.202 93.527 129.357 93.9851 129.664 94.3217C129.971 94.6584 130.382 94.8267 130.898 94.8267C131.226 94.8267 131.533 94.7521 131.818 94.603C132.104 94.4496 132.334 94.2237 132.508 93.9254C132.687 93.6271 132.775 93.2585 132.771 92.8196ZM137.672 97V87.1818H140.395V97H137.672ZM139.04 85.9162C138.635 85.9162 138.287 85.782 137.998 85.5135C137.712 85.2408 137.569 84.9148 137.569 84.5355C137.569 84.1605 137.712 83.8388 137.998 83.5703C138.287 83.2976 138.635 83.1612 139.04 83.1612C139.444 83.1612 139.79 83.2976 140.075 83.5703C140.365 83.8388 140.51 84.1605 140.51 84.5355C140.51 84.9148 140.365 85.2408 140.075 85.5135C139.79 85.782 139.444 85.9162 139.04 85.9162ZM150.745 89.9815L148.252 90.1349C148.209 89.9219 148.118 89.7301 147.977 89.5597C147.837 89.3849 147.651 89.2464 147.421 89.1442C147.195 89.0376 146.925 88.9844 146.609 88.9844C146.187 88.9844 145.832 89.0739 145.542 89.2528C145.252 89.4276 145.107 89.6619 145.107 89.956C145.107 90.1903 145.201 90.3885 145.388 90.5504C145.576 90.7124 145.898 90.8423 146.354 90.9403L148.131 91.2983C149.085 91.4943 149.797 91.8097 150.266 92.2443C150.734 92.679 150.969 93.25 150.969 93.9574C150.969 94.6009 150.779 95.1655 150.4 95.6513C150.025 96.1371 149.509 96.5163 148.853 96.7891C148.201 97.0575 147.449 97.1918 146.597 97.1918C145.297 97.1918 144.261 96.9212 143.49 96.38C142.723 95.8345 142.273 95.093 142.141 94.1555L144.82 94.0149C144.9 94.4112 145.097 94.7138 145.408 94.9226C145.719 95.1271 146.117 95.2294 146.603 95.2294C147.08 95.2294 147.464 95.1378 147.753 94.9545C148.047 94.767 148.197 94.5263 148.201 94.2322C148.197 93.9851 148.092 93.7827 147.888 93.625C147.683 93.4631 147.368 93.3395 146.942 93.2543L145.241 92.9155C144.283 92.7237 143.569 92.3913 143.1 91.9183C142.636 91.4453 142.403 90.8423 142.403 90.1094C142.403 89.4787 142.574 88.9354 142.915 88.4794C143.26 88.0234 143.744 87.6719 144.366 87.4247C144.992 87.1776 145.725 87.054 146.565 87.054C147.805 87.054 148.78 87.3161 149.492 87.8402C150.208 88.3643 150.626 89.0781 150.745 89.9815ZM152.683 97V87.1818H155.406V97H152.683ZM154.051 85.9162C153.646 85.9162 153.299 85.782 153.009 85.5135C152.724 85.2408 152.581 84.9148 152.581 84.5355C152.581 84.1605 152.724 83.8388 153.009 83.5703C153.299 83.2976 153.646 83.1612 154.051 83.1612C154.456 83.1612 154.801 83.2976 155.087 83.5703C155.377 83.8388 155.521 84.1605 155.521 84.5355C155.521 84.9148 155.377 85.2408 155.087 85.5135C154.801 85.782 154.456 85.9162 154.051 85.9162ZM160.387 97.1854C159.761 97.1854 159.203 97.0767 158.713 96.8594C158.223 96.6378 157.835 96.3118 157.549 95.8814C157.268 95.4467 157.127 94.9055 157.127 94.2578C157.127 93.7124 157.228 93.2543 157.428 92.8835C157.628 92.5128 157.901 92.2145 158.246 91.9886C158.591 91.7628 158.983 91.5923 159.422 91.4773C159.865 91.3622 160.33 91.2812 160.816 91.2344C161.387 91.1747 161.847 91.1193 162.196 91.0682C162.546 91.0128 162.799 90.9318 162.957 90.8253C163.115 90.7187 163.193 90.5611 163.193 90.3523V90.3139C163.193 89.9091 163.066 89.5959 162.81 89.3743C162.559 89.1527 162.201 89.0419 161.736 89.0419C161.246 89.0419 160.856 89.1506 160.566 89.3679C160.277 89.581 160.085 89.8494 159.991 90.1733L157.473 89.9688C157.6 89.3722 157.852 88.8565 158.227 88.4219C158.602 87.983 159.085 87.6463 159.678 87.4119C160.274 87.1733 160.965 87.054 161.749 87.054C162.294 87.054 162.816 87.1179 163.315 87.2457C163.818 87.3736 164.263 87.5717 164.651 87.8402C165.043 88.1087 165.352 88.4538 165.578 88.8757C165.804 89.2933 165.916 89.794 165.916 90.3778V97H163.334V95.6385H163.257C163.1 95.9453 162.889 96.2159 162.625 96.4503C162.36 96.6804 162.043 96.8615 161.672 96.9936C161.301 97.1214 160.873 97.1854 160.387 97.1854ZM161.167 95.3061C161.568 95.3061 161.921 95.2273 162.228 95.0696C162.535 94.9077 162.776 94.6903 162.951 94.4176C163.125 94.1449 163.213 93.8359 163.213 93.4908V92.4489C163.127 92.5043 163.01 92.5554 162.861 92.6023C162.716 92.6449 162.552 92.6854 162.369 92.7237C162.186 92.7578 162.002 92.7898 161.819 92.8196C161.636 92.8452 161.47 92.8686 161.321 92.8899C161.001 92.9368 160.722 93.0114 160.483 93.1136C160.245 93.2159 160.059 93.3544 159.927 93.5291C159.795 93.6996 159.729 93.9126 159.729 94.1683C159.729 94.5391 159.863 94.8224 160.132 95.0185C160.404 95.2102 160.75 95.3061 161.167 95.3061ZM170.752 91.3239V97H168.029V87.1818H170.624V88.9141H170.739C170.957 88.343 171.321 87.8913 171.832 87.5589C172.344 87.2223 172.964 87.054 173.692 87.054C174.374 87.054 174.969 87.2031 175.476 87.5014C175.983 87.7997 176.377 88.2259 176.658 88.7798C176.94 89.3295 177.08 89.9858 177.08 90.7486V97H174.357V91.2344C174.361 90.6335 174.208 90.1648 173.897 89.8281C173.586 89.4872 173.158 89.3168 172.612 89.3168C172.246 89.3168 171.922 89.3956 171.641 89.5533C171.364 89.7109 171.146 89.9411 170.989 90.2436C170.835 90.5419 170.756 90.902 170.752 91.3239ZM182.026 97.1854C181.4 97.1854 180.841 97.0767 180.351 96.8594C179.861 96.6378 179.473 96.3118 179.188 95.8814C178.907 95.4467 178.766 94.9055 178.766 94.2578C178.766 93.7124 178.866 93.2543 179.066 92.8835C179.267 92.5128 179.54 92.2145 179.885 91.9886C180.23 91.7628 180.622 91.5923 181.061 91.4773C181.504 91.3622 181.968 91.2812 182.454 91.2344C183.025 91.1747 183.486 91.1193 183.835 91.0682C184.184 91.0128 184.438 90.9318 184.596 90.8253C184.753 90.7187 184.832 90.5611 184.832 90.3523V90.3139C184.832 89.9091 184.704 89.5959 184.449 89.3743C184.197 89.1527 183.839 89.0419 183.375 89.0419C182.885 89.0419 182.495 89.1506 182.205 89.3679C181.915 89.581 181.723 89.8494 181.63 90.1733L179.111 89.9688C179.239 89.3722 179.491 88.8565 179.866 88.4219C180.241 87.983 180.724 87.6463 181.316 87.4119C181.913 87.1733 182.603 87.054 183.388 87.054C183.933 87.054 184.455 87.1179 184.954 87.2457C185.456 87.3736 185.902 87.5717 186.29 87.8402C186.682 88.1087 186.991 88.4538 187.216 88.8757C187.442 89.2933 187.555 89.794 187.555 90.3778V97H184.973V95.6385H184.896C184.738 95.9453 184.527 96.2159 184.263 96.4503C183.999 96.6804 183.682 96.8615 183.311 96.9936C182.94 97.1214 182.512 97.1854 182.026 97.1854ZM182.806 95.3061C183.206 95.3061 183.56 95.2273 183.867 95.0696C184.174 94.9077 184.415 94.6903 184.589 94.4176C184.764 94.1449 184.851 93.8359 184.851 93.4908V92.4489C184.766 92.5043 184.649 92.5554 184.5 92.6023C184.355 92.6449 184.191 92.6854 184.008 92.7237C183.824 92.7578 183.641 92.7898 183.458 92.8196C183.275 92.8452 183.108 92.8686 182.959 92.8899C182.64 92.9368 182.361 93.0114 182.122 93.1136C181.883 93.2159 181.698 93.3544 181.566 93.5291C181.434 93.6996 181.368 93.9126 181.368 94.1683C181.368 94.5391 181.502 94.8224 181.77 95.0185C182.043 95.2102 182.388 95.3061 182.806 95.3061ZM196.141 97H193.175L197.695 83.9091H201.261L205.774 97H202.808L199.529 86.9006H199.427L196.141 97ZM195.956 91.8544H202.962V94.0149H195.956V91.8544ZM215.222 87.1818L211.789 97H208.721L205.288 87.1818H208.165L210.204 94.2067H210.306L212.339 87.1818H215.222ZM220.773 97.1918C219.763 97.1918 218.894 96.9872 218.165 96.5781C217.441 96.1648 216.882 95.581 216.49 94.8267C216.098 94.0682 215.902 93.1712 215.902 92.1357C215.902 91.1257 216.098 90.2393 216.49 89.4766C216.882 88.7138 217.434 88.1193 218.146 87.6932C218.862 87.267 219.701 87.054 220.664 87.054C221.312 87.054 221.915 87.1584 222.473 87.3672C223.036 87.5717 223.526 87.8807 223.943 88.294C224.365 88.7074 224.693 89.2273 224.928 89.8537C225.162 90.4759 225.279 91.2045 225.279 92.0398V92.7876H216.989V91.1001H222.716C222.716 90.7081 222.631 90.3608 222.46 90.0582C222.29 89.7557 222.054 89.5192 221.751 89.3487C221.453 89.174 221.105 89.0866 220.709 89.0866C220.296 89.0866 219.929 89.1825 219.61 89.3743C219.294 89.5618 219.047 89.8153 218.868 90.1349C218.689 90.4503 218.598 90.8018 218.593 91.1896V92.794C218.593 93.2798 218.683 93.6996 218.862 94.0533C219.045 94.407 219.303 94.6797 219.635 94.8714C219.968 95.0632 220.362 95.1591 220.818 95.1591C221.12 95.1591 221.397 95.1165 221.649 95.0312C221.9 94.946 222.115 94.8182 222.294 94.6477C222.473 94.4773 222.61 94.2685 222.703 94.0213L225.222 94.1875C225.094 94.7926 224.832 95.321 224.436 95.7727C224.044 96.2202 223.536 96.5696 222.914 96.821C222.296 97.0682 221.583 97.1918 220.773 97.1918ZM230.016 95.2102L229.946 95.9134C229.89 96.4759 229.784 97.0362 229.626 97.5945C229.473 98.157 229.311 98.6662 229.14 99.1222C228.974 99.5781 228.84 99.9361 228.737 100.196H226.973C227.037 99.9446 227.125 99.593 227.235 99.1413C227.346 98.6939 227.451 98.1911 227.549 97.6328C227.647 97.0746 227.708 96.5057 227.734 95.9261L227.766 95.2102H230.016ZM236.108 83.9091H239.521L243.126 92.7045H243.279L246.884 83.9091H250.298V97H247.613V88.4794H247.505L244.117 96.9361H242.289L238.901 88.4474H238.792V97H236.108V83.9091ZM252.527 97V87.1818H255.25V97H252.527ZM253.895 85.9162C253.49 85.9162 253.143 85.782 252.853 85.5135C252.568 85.2408 252.425 84.9148 252.425 84.5355C252.425 84.1605 252.568 83.8388 252.853 83.5703C253.143 83.2976 253.49 83.1612 253.895 83.1612C254.3 83.1612 254.645 83.2976 254.93 83.5703C255.22 83.8388 255.365 84.1605 255.365 84.5355C255.365 84.9148 255.22 85.2408 254.93 85.5135C254.645 85.782 254.3 85.9162 253.895 85.9162ZM261.049 97.1598C260.304 97.1598 259.628 96.968 259.023 96.5845C258.422 96.1967 257.945 95.6278 257.591 94.8778C257.242 94.1236 257.067 93.1989 257.067 92.1037C257.067 90.9787 257.248 90.0433 257.61 89.2976C257.973 88.5476 258.454 87.9872 259.055 87.6165C259.66 87.2415 260.323 87.054 261.043 87.054C261.593 87.054 262.051 87.1477 262.417 87.3352C262.788 87.5185 263.086 87.7486 263.312 88.0256C263.542 88.2983 263.717 88.5668 263.836 88.831H263.919V83.9091H266.636V97H263.951V95.4276H263.836C263.708 95.7003 263.527 95.9709 263.293 96.2393C263.063 96.5036 262.762 96.723 262.392 96.8977C262.025 97.0724 261.578 97.1598 261.049 97.1598ZM261.912 94.9929C262.351 94.9929 262.722 94.8736 263.024 94.6349C263.331 94.392 263.566 94.0533 263.728 93.6186C263.894 93.1839 263.977 92.6747 263.977 92.0909C263.977 91.5071 263.896 91 263.734 90.5696C263.572 90.1392 263.338 89.8068 263.031 89.5724C262.724 89.3381 262.351 89.2209 261.912 89.2209C261.465 89.2209 261.088 89.3423 260.781 89.5852C260.474 89.8281 260.242 90.1648 260.084 90.5952C259.926 91.0256 259.848 91.5241 259.848 92.0909C259.848 92.6619 259.926 93.1669 260.084 93.6058C260.246 94.0405 260.478 94.3814 260.781 94.6286C261.088 94.8714 261.465 94.9929 261.912 94.9929ZM271.598 83.9091V97H268.875V83.9091H271.598ZM276.579 97.1854C275.952 97.1854 275.394 97.0767 274.904 96.8594C274.414 96.6378 274.026 96.3118 273.741 95.8814C273.459 95.4467 273.319 94.9055 273.319 94.2578C273.319 93.7124 273.419 93.2543 273.619 92.8835C273.82 92.5128 274.092 92.2145 274.437 91.9886C274.783 91.7628 275.175 91.5923 275.614 91.4773C276.057 91.3622 276.521 91.2812 277.007 91.2344C277.578 91.1747 278.038 91.1193 278.388 91.0682C278.737 91.0128 278.991 90.9318 279.148 90.8253C279.306 90.7187 279.385 90.5611 279.385 90.3523V90.3139C279.385 89.9091 279.257 89.5959 279.001 89.3743C278.75 89.1527 278.392 89.0419 277.927 89.0419C277.437 89.0419 277.047 89.1506 276.758 89.3679C276.468 89.581 276.276 89.8494 276.182 90.1733L273.664 89.9688C273.792 89.3722 274.043 88.8565 274.418 88.4219C274.793 87.983 275.277 87.6463 275.869 87.4119C276.466 87.1733 277.156 87.054 277.94 87.054C278.486 87.054 279.008 87.1179 279.506 87.2457C280.009 87.3736 280.454 87.5717 280.842 87.8402C281.234 88.1087 281.543 88.4538 281.769 88.8757C281.995 89.2933 282.108 89.794 282.108 90.3778V97H279.525V95.6385H279.449C279.291 95.9453 279.08 96.2159 278.816 96.4503C278.552 96.6804 278.234 96.8615 277.864 96.9936C277.493 97.1214 277.065 97.1854 276.579 97.1854ZM277.359 95.3061C277.759 95.3061 278.113 95.2273 278.42 95.0696C278.726 94.9077 278.967 94.6903 279.142 94.4176C279.317 94.1449 279.404 93.8359 279.404 93.4908V92.4489C279.319 92.5043 279.202 92.5554 279.052 92.6023C278.908 92.6449 278.744 92.6854 278.56 92.7237C278.377 92.7578 278.194 92.7898 278.011 92.8196C277.827 92.8452 277.661 92.8686 277.512 92.8899C277.192 92.9368 276.913 93.0114 276.675 93.1136C276.436 93.2159 276.251 93.3544 276.119 93.5291C275.986 93.6996 275.92 93.9126 275.92 94.1683C275.92 94.5391 276.055 94.8224 276.323 95.0185C276.596 95.2102 276.941 95.3061 277.359 95.3061ZM286.943 91.3239V97H284.22V87.1818H286.816V88.9141H286.931C287.148 88.343 287.512 87.8913 288.024 87.5589C288.535 87.2223 289.155 87.054 289.884 87.054C290.566 87.054 291.16 87.2031 291.667 87.5014C292.174 87.7997 292.568 88.2259 292.85 88.7798C293.131 89.3295 293.272 89.9858 293.272 90.7486V97H290.549V91.2344C290.553 90.6335 290.399 90.1648 290.088 89.8281C289.777 89.4872 289.349 89.3168 288.804 89.3168C288.437 89.3168 288.113 89.3956 287.832 89.5533C287.555 89.7109 287.338 89.9411 287.18 90.2436C287.027 90.5419 286.948 90.902 286.943 91.3239ZM299.036 97.1598C298.29 97.1598 297.614 96.968 297.009 96.5845C296.408 96.1967 295.931 95.6278 295.578 94.8778C295.228 94.1236 295.053 93.1989 295.053 92.1037C295.053 90.9787 295.234 90.0433 295.597 89.2976C295.959 88.5476 296.44 87.9872 297.041 87.6165C297.646 87.2415 298.309 87.054 299.029 87.054C299.579 87.054 300.037 87.1477 300.403 87.3352C300.774 87.5185 301.073 87.7486 301.298 88.0256C301.528 88.2983 301.703 88.5668 301.823 88.831H301.906V83.9091H304.622V97H301.938V95.4276H301.823C301.695 95.7003 301.514 95.9709 301.279 96.2393C301.049 96.5036 300.749 96.723 300.378 96.8977C300.011 97.0724 299.564 97.1598 299.036 97.1598ZM299.899 94.9929C300.337 94.9929 300.708 94.8736 301.011 94.6349C301.318 94.392 301.552 94.0533 301.714 93.6186C301.88 93.1839 301.963 92.6747 301.963 92.0909C301.963 91.5071 301.882 91 301.72 90.5696C301.558 90.1392 301.324 89.8068 301.017 89.5724C300.71 89.3381 300.337 89.2209 299.899 89.2209C299.451 89.2209 299.074 89.3423 298.767 89.5852C298.46 89.8281 298.228 90.1648 298.07 90.5952C297.913 91.0256 297.834 91.5241 297.834 92.0909C297.834 92.6619 297.913 93.1669 298.07 93.6058C298.232 94.0405 298.465 94.3814 298.767 94.6286C299.074 94.8714 299.451 94.9929 299.899 94.9929ZM309.821 95.2102L309.75 95.9134C309.695 96.4759 309.588 97.0362 309.431 97.5945C309.277 98.157 309.115 98.6662 308.945 99.1222C308.779 99.5781 308.644 99.9361 308.542 100.196H306.778C306.842 99.9446 306.929 99.593 307.04 99.1413C307.151 98.6939 307.255 98.1911 307.353 97.6328C307.451 97.0746 307.513 96.5057 307.539 95.9261L307.571 95.2102H309.821ZM315.414 86.1911V83.9091H326.165V86.1911H322.157V97H319.421V86.1911H315.414ZM330.531 83.9091L333.171 88.3707H333.273L335.926 83.9091H339.051L335.056 90.4545L339.141 97H335.958L333.273 92.532H333.171L330.486 97H327.316L331.413 90.4545L327.392 83.9091H330.531ZM345.41 97L350.837 86.2614V86.1719H344.515V83.9091H353.7V86.2038L348.267 97H345.41ZM360.158 83.7301C360.831 83.7301 361.479 83.843 362.101 84.0689C362.728 84.2947 363.286 84.6548 363.776 85.1491C364.27 85.6435 364.66 86.2997 364.946 87.1179C365.235 87.9318 365.382 88.9311 365.387 90.1158C365.387 91.228 365.261 92.2209 365.009 93.0945C364.762 93.9638 364.407 94.7031 363.942 95.3125C363.478 95.9219 362.917 96.3864 362.261 96.706C361.605 97.0213 360.872 97.179 360.062 97.179C359.188 97.179 358.417 97.0107 357.748 96.674C357.079 96.3331 356.54 95.8707 356.131 95.2869C355.726 94.6989 355.481 94.0384 355.396 93.3054H358.125C358.232 93.7827 358.456 94.1534 358.796 94.4176C359.137 94.6776 359.559 94.8075 360.062 94.8075C360.914 94.8075 361.562 94.4368 362.005 93.6953C362.448 92.9496 362.672 91.929 362.676 90.6335H362.587C362.391 91.017 362.127 91.3473 361.794 91.6243C361.462 91.897 361.081 92.108 360.65 92.2571C360.224 92.4062 359.77 92.4808 359.289 92.4808C358.517 92.4808 357.829 92.2997 357.224 91.9375C356.619 91.5753 356.142 91.0767 355.792 90.4418C355.443 89.8068 355.268 89.0824 355.268 88.2685C355.264 87.3906 355.466 86.6087 355.875 85.9226C356.284 85.2365 356.855 84.6996 357.588 84.3118C358.326 83.9197 359.182 83.7259 360.158 83.7301ZM360.177 85.9034C359.747 85.9034 359.363 86.0057 359.027 86.2102C358.694 86.4148 358.43 86.6896 358.234 87.0348C358.042 87.38 357.948 87.7656 357.953 88.1918C357.953 88.6222 358.046 89.0099 358.234 89.3551C358.426 89.696 358.686 89.9687 359.014 90.1733C359.346 90.3736 359.725 90.4737 360.152 90.4737C360.471 90.4737 360.767 90.4141 361.04 90.2947C361.313 90.1754 361.549 90.0114 361.75 89.8026C361.954 89.5895 362.114 89.3445 362.229 89.0675C362.344 88.7905 362.402 88.4964 362.402 88.1854C362.397 87.772 362.299 87.3928 362.108 87.0476C361.916 86.7024 361.652 86.4254 361.315 86.2166C360.978 86.0078 360.599 85.9034 360.177 85.9034ZM367.47 97L372.897 86.2614V86.1719H366.576V83.9091H375.761V86.2038L370.328 97H367.47ZM382.509 97.2876C381.41 97.2834 380.464 97.0128 379.671 96.4759C378.883 95.9389 378.276 95.1612 377.85 94.1428C377.428 93.1243 377.219 91.8991 377.223 90.4673C377.223 89.0398 377.434 87.8232 377.856 86.8175C378.282 85.8118 378.889 85.0469 379.678 84.5227C380.47 83.9943 381.414 83.7301 382.509 83.7301C383.604 83.7301 384.546 83.9943 385.335 84.5227C386.127 85.0511 386.737 85.8182 387.163 86.8239C387.589 87.8253 387.8 89.0398 387.796 90.4673C387.796 91.9034 387.582 93.1307 387.156 94.1491C386.734 95.1676 386.129 95.9453 385.341 96.4822C384.553 97.0192 383.609 97.2876 382.509 97.2876ZM382.509 94.9929C383.259 94.9929 383.858 94.6158 384.305 93.8615C384.753 93.1072 384.975 91.9759 384.97 90.4673C384.97 89.4744 384.868 88.6477 384.663 87.9872C384.463 87.3267 384.178 86.8303 383.807 86.4979C383.44 86.1655 383.008 85.9993 382.509 85.9993C381.764 85.9993 381.167 86.3722 380.72 87.1179C380.272 87.8636 380.046 88.9801 380.042 90.4673C380.042 91.473 380.142 92.3125 380.342 92.9858C380.547 93.6548 380.835 94.1577 381.205 94.4943C381.576 94.8267 382.011 94.9929 382.509 94.9929ZM395.464 83.9091V97H392.697V86.5362H392.62L389.622 88.4155V85.9609L392.863 83.9091H395.464ZM80.6905 141H79.0286L83.8354 127.909H85.4718L90.2786 141H88.6167L84.7047 129.98H84.6025L80.6905 141ZM81.3042 135.886H88.003V137.293H81.3042V135.886ZM96.1017 141.205C95.1813 141.205 94.3887 140.987 93.7239 140.553C93.0591 140.118 92.5478 139.519 92.1898 138.756C91.8319 137.994 91.6529 137.122 91.6529 136.142C91.6529 135.145 91.8361 134.265 92.2026 133.502C92.5733 132.735 93.089 132.136 93.7495 131.706C94.4142 131.271 95.1898 131.054 96.0762 131.054C96.7665 131.054 97.3887 131.182 97.9426 131.438C98.4966 131.693 98.9505 132.051 99.3042 132.511C99.6578 132.972 99.8773 133.509 99.9625 134.122H98.454C98.339 133.675 98.0833 133.278 97.687 132.933C97.2949 132.584 96.7665 132.409 96.1017 132.409C95.5137 132.409 94.998 132.562 94.5549 132.869C94.1159 133.172 93.7729 133.6 93.5257 134.154C93.2828 134.704 93.1614 135.349 93.1614 136.091C93.1614 136.849 93.2807 137.51 93.5194 138.072C93.7623 138.635 94.1032 139.072 94.5421 139.383C94.9853 139.694 95.5051 139.849 96.1017 139.849C96.4938 139.849 96.8496 139.781 97.1692 139.645C97.4888 139.509 97.7594 139.312 97.981 139.057C98.2026 138.801 98.3603 138.494 98.454 138.136H99.9625C99.8773 138.716 99.6664 139.238 99.3297 139.702C98.9973 140.163 98.5563 140.529 98.0066 140.802C97.4611 141.07 96.8262 141.205 96.1017 141.205ZM102.168 141V131.182H103.625V132.665H103.727C103.906 132.179 104.23 131.785 104.699 131.482C105.168 131.18 105.696 131.028 106.284 131.028C106.395 131.028 106.534 131.031 106.7 131.035C106.866 131.039 106.992 131.045 107.077 131.054V132.588C107.026 132.575 106.909 132.556 106.725 132.531C106.546 132.501 106.357 132.486 106.156 132.486C105.679 132.486 105.253 132.586 104.878 132.786C104.507 132.982 104.213 133.255 103.996 133.604C103.783 133.95 103.676 134.344 103.676 134.787V141H102.168ZM112.683 141.205C111.737 141.205 110.921 140.996 110.235 140.578C109.553 140.156 109.026 139.568 108.656 138.814C108.289 138.055 108.106 137.173 108.106 136.168C108.106 135.162 108.289 134.276 108.656 133.509C109.026 132.737 109.542 132.136 110.203 131.706C110.867 131.271 111.643 131.054 112.529 131.054C113.041 131.054 113.546 131.139 114.044 131.31C114.543 131.48 114.997 131.757 115.406 132.141C115.815 132.52 116.141 133.023 116.384 133.649C116.627 134.276 116.748 135.047 116.748 135.963V136.602H109.18V135.298H115.214C115.214 134.744 115.103 134.25 114.882 133.815C114.664 133.381 114.353 133.038 113.948 132.786C113.548 132.535 113.075 132.409 112.529 132.409C111.928 132.409 111.409 132.558 110.97 132.857C110.535 133.151 110.2 133.534 109.966 134.007C109.732 134.48 109.615 134.987 109.615 135.528V136.398C109.615 137.139 109.742 137.768 109.998 138.283C110.258 138.795 110.618 139.185 111.078 139.453C111.539 139.717 112.073 139.849 112.683 139.849C113.079 139.849 113.437 139.794 113.757 139.683C114.08 139.568 114.36 139.398 114.594 139.172C114.828 138.942 115.009 138.656 115.137 138.315L116.595 138.724C116.441 139.219 116.183 139.653 115.821 140.028C115.459 140.399 115.012 140.689 114.479 140.898C113.946 141.102 113.347 141.205 112.683 141.205ZM125.997 133.381L124.642 133.764C124.557 133.538 124.431 133.319 124.265 133.106C124.103 132.888 123.882 132.71 123.6 132.569C123.319 132.428 122.959 132.358 122.52 132.358C121.919 132.358 121.419 132.496 121.018 132.773C120.622 133.046 120.423 133.393 120.423 133.815C120.423 134.19 120.56 134.487 120.833 134.704C121.105 134.921 121.531 135.102 122.111 135.247L123.568 135.605C124.446 135.818 125.1 136.144 125.531 136.583C125.961 137.018 126.176 137.578 126.176 138.264C126.176 138.827 126.014 139.33 125.691 139.773C125.371 140.216 124.923 140.565 124.348 140.821C123.773 141.077 123.104 141.205 122.341 141.205C121.34 141.205 120.511 140.987 119.855 140.553C119.198 140.118 118.783 139.483 118.608 138.648L120.04 138.29C120.176 138.818 120.434 139.214 120.813 139.479C121.197 139.743 121.698 139.875 122.316 139.875C123.019 139.875 123.577 139.726 123.99 139.428C124.408 139.125 124.617 138.763 124.617 138.341C124.617 138 124.497 137.714 124.259 137.484C124.02 137.25 123.654 137.075 123.159 136.96L121.523 136.577C120.624 136.364 119.963 136.033 119.541 135.586C119.124 135.134 118.915 134.57 118.915 133.892C118.915 133.338 119.07 132.848 119.382 132.422C119.697 131.996 120.125 131.661 120.666 131.418C121.212 131.175 121.83 131.054 122.52 131.054C123.492 131.054 124.254 131.267 124.808 131.693C125.367 132.119 125.763 132.682 125.997 133.381ZM129.547 141.102C129.231 141.102 128.961 140.989 128.735 140.763C128.509 140.538 128.396 140.267 128.396 139.952C128.396 139.636 128.509 139.366 128.735 139.14C128.961 138.914 129.231 138.801 129.547 138.801C129.862 138.801 130.132 138.914 130.358 139.14C130.584 139.366 130.697 139.636 130.697 139.952C130.697 140.161 130.644 140.352 130.537 140.527C130.435 140.702 130.297 140.842 130.122 140.949C129.951 141.051 129.76 141.102 129.547 141.102ZM129.547 133.815C129.231 133.815 128.961 133.702 128.735 133.477C128.509 133.251 128.396 132.98 128.396 132.665C128.396 132.349 128.509 132.079 128.735 131.853C128.961 131.627 129.231 131.514 129.547 131.514C129.862 131.514 130.132 131.627 130.358 131.853C130.584 132.079 130.697 132.349 130.697 132.665C130.697 132.874 130.644 133.065 130.537 133.24C130.435 133.415 130.297 133.555 130.122 133.662C129.951 133.764 129.76 133.815 129.547 133.815ZM138.441 141V139.849L142.762 135.119C143.269 134.565 143.687 134.084 144.015 133.675C144.343 133.261 144.586 132.874 144.744 132.511C144.906 132.145 144.987 131.761 144.987 131.361C144.987 130.901 144.876 130.502 144.654 130.165C144.437 129.829 144.138 129.569 143.759 129.386C143.38 129.202 142.954 129.111 142.481 129.111C141.978 129.111 141.539 129.215 141.164 129.424C140.793 129.629 140.506 129.916 140.301 130.287C140.101 130.658 140.001 131.092 140.001 131.591H138.492C138.492 130.824 138.669 130.151 139.023 129.571C139.376 128.991 139.858 128.54 140.467 128.216C141.081 127.892 141.769 127.73 142.532 127.73C143.299 127.73 143.979 127.892 144.571 128.216C145.163 128.54 145.628 128.977 145.964 129.526C146.301 130.076 146.469 130.688 146.469 131.361C146.469 131.842 146.382 132.313 146.207 132.773C146.037 133.229 145.739 133.739 145.312 134.301C144.891 134.859 144.305 135.541 143.555 136.347L140.614 139.491V139.594H146.7V141H138.441ZM150.464 141.102C150.149 141.102 149.879 140.989 149.653 140.763C149.427 140.538 149.314 140.267 149.314 139.952C149.314 139.636 149.427 139.366 149.653 139.14C149.879 138.914 150.149 138.801 150.464 138.801C150.78 138.801 151.05 138.914 151.276 139.14C151.502 139.366 151.615 139.636 151.615 139.952C151.615 140.161 151.562 140.352 151.455 140.527C151.353 140.702 151.214 140.842 151.04 140.949C150.869 141.051 150.678 141.102 150.464 141.102ZM157.334 127.909V141H155.749V129.571H155.672L152.476 131.693V130.082L155.749 127.909H157.334ZM165.19 141.179C164.44 141.179 163.765 141.03 163.164 140.732C162.563 140.433 162.081 140.024 161.719 139.504C161.357 138.984 161.159 138.392 161.125 137.727H162.659C162.719 138.32 162.987 138.81 163.464 139.197C163.946 139.581 164.521 139.773 165.19 139.773C165.727 139.773 166.204 139.647 166.622 139.396C167.044 139.144 167.374 138.799 167.613 138.36C167.856 137.917 167.977 137.416 167.977 136.858C167.977 136.287 167.851 135.778 167.6 135.33C167.353 134.879 167.012 134.523 166.577 134.263C166.143 134.003 165.646 133.871 165.088 133.866C164.687 133.862 164.276 133.924 163.854 134.052C163.432 134.175 163.085 134.335 162.812 134.531L161.329 134.352L162.122 127.909H168.923V129.315H163.452L162.991 133.176H163.068C163.336 132.963 163.673 132.786 164.078 132.646C164.483 132.505 164.905 132.435 165.344 132.435C166.145 132.435 166.858 132.626 167.485 133.01C168.116 133.389 168.61 133.909 168.968 134.57C169.33 135.23 169.511 135.984 169.511 136.832C169.511 137.668 169.324 138.413 168.949 139.07C168.578 139.722 168.067 140.237 167.415 140.616C166.763 140.991 166.021 141.179 165.19 141.179ZM176.32 141.179C175.357 141.179 174.537 140.917 173.859 140.393C173.182 139.864 172.664 139.099 172.306 138.098C171.948 137.092 171.769 135.878 171.769 134.455C171.769 133.04 171.948 131.832 172.306 130.83C172.668 129.825 173.188 129.058 173.866 128.529C174.548 127.996 175.366 127.73 176.32 127.73C177.275 127.73 178.091 127.996 178.768 128.529C179.45 129.058 179.97 129.825 180.328 130.83C180.69 131.832 180.871 133.04 180.871 134.455C180.871 135.878 180.692 137.092 180.335 138.098C179.977 139.099 179.459 139.864 178.781 140.393C178.104 140.917 177.283 141.179 176.32 141.179ZM176.32 139.773C177.275 139.773 178.016 139.312 178.545 138.392C179.073 137.472 179.337 136.159 179.337 134.455C179.337 133.321 179.216 132.356 178.973 131.559C178.734 130.762 178.389 130.155 177.938 129.737C177.49 129.32 176.951 129.111 176.32 129.111C175.374 129.111 174.635 129.577 174.102 130.511C173.57 131.44 173.303 132.754 173.303 134.455C173.303 135.588 173.423 136.551 173.661 137.344C173.9 138.136 174.243 138.739 174.69 139.153C175.142 139.566 175.685 139.773 176.32 139.773ZM185.119 139.21L185.017 139.901C184.944 140.386 184.833 140.906 184.684 141.46C184.539 142.014 184.388 142.536 184.23 143.026C184.073 143.516 183.943 143.906 183.841 144.196H182.69C182.745 143.923 182.818 143.563 182.907 143.116C182.997 142.668 183.086 142.168 183.176 141.614C183.27 141.064 183.346 140.501 183.406 139.926L183.483 139.21H185.119ZM193.181 141V127.909H197.758C198.67 127.909 199.422 128.067 200.014 128.382C200.606 128.693 201.047 129.113 201.337 129.641C201.627 130.165 201.772 130.747 201.772 131.386C201.772 131.949 201.672 132.413 201.471 132.78C201.275 133.146 201.015 133.436 200.692 133.649C200.372 133.862 200.025 134.02 199.65 134.122V134.25C200.05 134.276 200.453 134.416 200.858 134.672C201.263 134.928 201.601 135.294 201.874 135.771C202.147 136.249 202.283 136.832 202.283 137.523C202.283 138.179 202.134 138.769 201.836 139.293C201.537 139.817 201.067 140.233 200.423 140.54C199.78 140.847 198.942 141 197.911 141H193.181ZM194.766 139.594H197.911C198.947 139.594 199.682 139.393 200.116 138.993C200.555 138.588 200.775 138.098 200.775 137.523C200.775 137.08 200.662 136.67 200.436 136.295C200.21 135.916 199.888 135.614 199.471 135.388C199.053 135.158 198.559 135.043 197.988 135.043H194.766V139.594ZM194.766 133.662H197.706C198.184 133.662 198.614 133.568 198.998 133.381C199.385 133.193 199.692 132.929 199.918 132.588C200.148 132.247 200.263 131.847 200.263 131.386C200.263 130.811 200.063 130.323 199.662 129.923C199.262 129.518 198.627 129.315 197.758 129.315H194.766V133.662ZM204.888 141V127.909H206.473V139.594H212.558V141H204.888ZM215.013 141V127.909H216.598V134.403H216.752L222.632 127.909H224.703L219.206 133.815L224.703 141H222.786L218.235 134.915L216.598 136.756V141H215.013ZM227.65 139.325C227.335 139.325 227.064 139.212 226.838 138.987C226.612 138.761 226.499 138.49 226.499 138.175C226.499 137.859 226.612 137.589 226.838 137.363C227.064 137.137 227.335 137.024 227.65 137.024C227.965 137.024 228.236 137.137 228.462 137.363C228.688 137.589 228.801 137.859 228.801 138.175C228.801 138.384 228.747 138.575 228.641 138.75C228.539 138.925 228.4 139.065 228.225 139.172C228.055 139.274 227.863 139.325 227.65 139.325ZM227.65 132.703C227.335 132.703 227.064 132.59 226.838 132.364C226.612 132.138 226.499 131.868 226.499 131.553C226.499 131.237 226.612 130.967 226.838 130.741C227.064 130.515 227.335 130.402 227.65 130.402C227.965 130.402 228.236 130.515 228.462 130.741C228.688 130.967 228.801 131.237 228.801 131.553C228.801 131.761 228.747 131.953 228.641 132.128C228.539 132.303 228.4 132.443 228.225 132.55C228.055 132.652 227.863 132.703 227.65 132.703ZM240.814 141.179C239.851 141.179 239.031 140.917 238.354 140.393C237.676 139.864 237.158 139.099 236.8 138.098C236.442 137.092 236.263 135.878 236.263 134.455C236.263 133.04 236.442 131.832 236.8 130.83C237.162 129.825 237.682 129.058 238.36 128.529C239.042 127.996 239.86 127.73 240.814 127.73C241.769 127.73 242.585 127.996 243.263 128.529C243.944 129.058 244.464 129.825 244.822 130.83C245.184 131.832 245.366 133.04 245.366 134.455C245.366 135.878 245.187 137.092 244.829 138.098C244.471 139.099 243.953 139.864 243.275 140.393C242.598 140.917 241.778 141.179 240.814 141.179ZM240.814 139.773C241.769 139.773 242.51 139.312 243.039 138.392C243.567 137.472 243.831 136.159 243.831 134.455C243.831 133.321 243.71 132.356 243.467 131.559C243.229 130.762 242.883 130.155 242.432 129.737C241.984 129.32 241.445 129.111 240.814 129.111C239.868 129.111 239.129 129.577 238.596 130.511C238.064 131.44 237.797 132.754 237.797 134.455C237.797 135.588 237.917 136.551 238.155 137.344C238.394 138.136 238.737 138.739 239.184 139.153C239.636 139.566 240.18 139.773 240.814 139.773ZM252.064 141.179C251.101 141.179 250.281 140.917 249.604 140.393C248.926 139.864 248.408 139.099 248.05 138.098C247.692 137.092 247.513 135.878 247.513 134.455C247.513 133.04 247.692 131.832 248.05 130.83C248.412 129.825 248.932 129.058 249.61 128.529C250.292 127.996 251.11 127.73 252.064 127.73C253.019 127.73 253.835 127.996 254.513 128.529C255.194 129.058 255.714 129.825 256.072 130.83C256.434 131.832 256.616 133.04 256.616 134.455C256.616 135.878 256.437 137.092 256.079 138.098C255.721 139.099 255.203 139.864 254.525 140.393C253.848 140.917 253.028 141.179 252.064 141.179ZM252.064 139.773C253.019 139.773 253.76 139.312 254.289 138.392C254.817 137.472 255.081 136.159 255.081 134.455C255.081 133.321 254.96 132.356 254.717 131.559C254.479 130.762 254.133 130.155 253.682 129.737C253.234 129.32 252.695 129.111 252.064 129.111C251.118 129.111 250.379 129.577 249.846 130.511C249.314 131.44 249.047 132.754 249.047 134.455C249.047 135.588 249.167 136.551 249.405 137.344C249.644 138.136 249.987 138.739 250.434 139.153C250.886 139.566 251.43 139.773 252.064 139.773ZM263.647 127.909V141H262.062V129.571H261.985L258.789 131.693V130.082L262.062 127.909H263.647ZM268.914 139.21L268.812 139.901C268.739 140.386 268.628 140.906 268.479 141.46C268.334 142.014 268.183 142.536 268.025 143.026C267.868 143.516 267.738 143.906 267.635 144.196H266.485C266.54 143.923 266.613 143.563 266.702 143.116C266.792 142.668 266.881 142.168 266.971 141.614C267.064 141.064 267.141 140.501 267.201 139.926L267.278 139.21H268.914ZM276.976 141V127.909H278.561V139.594H284.646V141H276.976ZM297.637 134.455C297.637 135.835 297.387 137.028 296.889 138.034C296.39 139.04 295.706 139.815 294.837 140.361C293.968 140.906 292.975 141.179 291.858 141.179C290.742 141.179 289.749 140.906 288.879 140.361C288.01 139.815 287.326 139.04 286.828 138.034C286.329 137.028 286.08 135.835 286.08 134.455C286.08 133.074 286.329 131.881 286.828 130.875C287.326 129.869 288.01 129.094 288.879 128.548C289.749 128.003 290.742 127.73 291.858 127.73C292.975 127.73 293.968 128.003 294.837 128.548C295.706 129.094 296.39 129.869 296.889 130.875C297.387 131.881 297.637 133.074 297.637 134.455ZM296.102 134.455C296.102 133.321 295.913 132.364 295.534 131.585C295.159 130.805 294.649 130.214 294.006 129.814C293.367 129.413 292.651 129.213 291.858 129.213C291.066 129.213 290.347 129.413 289.704 129.814C289.065 130.214 288.556 130.805 288.176 131.585C287.801 132.364 287.614 133.321 287.614 134.455C287.614 135.588 287.801 136.545 288.176 137.325C288.556 138.104 289.065 138.695 289.704 139.095C290.347 139.496 291.066 139.696 291.858 139.696C292.651 139.696 293.367 139.496 294.006 139.095C294.649 138.695 295.159 138.104 295.534 137.325C295.913 136.545 296.102 135.588 296.102 134.455ZM299.041 129.315V127.909H308.859V129.315H304.743V141H303.158V129.315H299.041ZM311.48 139.325C311.165 139.325 310.894 139.212 310.668 138.987C310.442 138.761 310.33 138.49 310.33 138.175C310.33 137.859 310.442 137.589 310.668 137.363C310.894 137.137 311.165 137.024 311.48 137.024C311.795 137.024 312.066 137.137 312.292 137.363C312.518 137.589 312.631 137.859 312.631 138.175C312.631 138.384 312.577 138.575 312.471 138.75C312.369 138.925 312.23 139.065 312.055 139.172C311.885 139.274 311.693 139.325 311.48 139.325ZM311.48 132.703C311.165 132.703 310.894 132.59 310.668 132.364C310.442 132.138 310.33 131.868 310.33 131.553C310.33 131.237 310.442 130.967 310.668 130.741C310.894 130.515 311.165 130.402 311.48 130.402C311.795 130.402 312.066 130.515 312.292 130.741C312.518 130.967 312.631 131.237 312.631 131.553C312.631 131.761 312.577 131.953 312.471 132.128C312.369 132.303 312.23 132.443 312.055 132.55C311.885 132.652 311.693 132.703 311.48 132.703ZM324.645 141.179C323.681 141.179 322.861 140.917 322.184 140.393C321.506 139.864 320.988 139.099 320.63 138.098C320.272 137.092 320.093 135.878 320.093 134.455C320.093 133.04 320.272 131.832 320.63 130.83C320.993 129.825 321.512 129.058 322.19 128.529C322.872 127.996 323.69 127.73 324.645 127.73C325.599 127.73 326.415 127.996 327.093 128.529C327.775 129.058 328.294 129.825 328.652 130.83C329.015 131.832 329.196 133.04 329.196 134.455C329.196 135.878 329.017 137.092 328.659 138.098C328.301 139.099 327.783 139.864 327.105 140.393C326.428 140.917 325.608 141.179 324.645 141.179ZM324.645 139.773C325.599 139.773 326.341 139.312 326.869 138.392C327.397 137.472 327.662 136.159 327.662 134.455C327.662 133.321 327.54 132.356 327.297 131.559C327.059 130.762 326.713 130.155 326.262 129.737C325.814 129.32 325.275 129.111 324.645 129.111C323.699 129.111 322.959 129.577 322.426 130.511C321.894 131.44 321.627 132.754 321.627 134.455C321.627 135.588 321.747 136.551 321.985 137.344C322.224 138.136 322.567 138.739 323.015 139.153C323.466 139.566 324.01 139.773 324.645 139.773ZM336.227 127.909V141H334.642V129.571H334.565L331.369 131.693V130.082L334.642 127.909H336.227ZM344.185 141.179C343.307 141.179 342.532 141.023 341.858 140.712C341.189 140.397 340.667 139.964 340.292 139.415C339.917 138.861 339.732 138.23 339.736 137.523C339.732 136.969 339.841 136.457 340.062 135.989C340.284 135.516 340.586 135.121 340.97 134.806C341.358 134.487 341.79 134.284 342.267 134.199V134.122C341.641 133.96 341.142 133.609 340.772 133.067C340.401 132.522 340.218 131.902 340.222 131.207C340.218 130.543 340.386 129.948 340.727 129.424C341.068 128.9 341.537 128.487 342.133 128.184C342.734 127.881 343.418 127.73 344.185 127.73C344.944 127.73 345.621 127.881 346.218 128.184C346.814 128.487 347.283 128.9 347.624 129.424C347.969 129.948 348.144 130.543 348.148 131.207C348.144 131.902 347.954 132.522 347.579 133.067C347.208 133.609 346.716 133.96 346.103 134.122V134.199C346.576 134.284 347.002 134.487 347.381 134.806C347.76 135.121 348.063 135.516 348.289 135.989C348.515 136.457 348.63 136.969 348.634 137.523C348.63 138.23 348.438 138.861 348.059 139.415C347.684 139.964 347.162 140.397 346.493 140.712C345.828 141.023 345.059 141.179 344.185 141.179ZM344.185 139.773C344.777 139.773 345.289 139.677 345.719 139.485C346.15 139.293 346.482 139.023 346.716 138.673C346.951 138.324 347.07 137.915 347.074 137.446C347.07 136.952 346.942 136.515 346.691 136.136C346.439 135.756 346.096 135.458 345.662 135.241C345.231 135.023 344.739 134.915 344.185 134.915C343.627 134.915 343.128 135.023 342.689 135.241C342.255 135.458 341.912 135.756 341.66 136.136C341.413 136.515 341.292 136.952 341.296 137.446C341.292 137.915 341.404 138.324 341.635 138.673C341.869 139.023 342.203 139.293 342.638 139.485C343.073 139.677 343.588 139.773 344.185 139.773ZM344.185 133.56C344.654 133.56 345.069 133.466 345.431 133.278C345.798 133.091 346.086 132.829 346.294 132.492C346.503 132.156 346.61 131.761 346.614 131.31C346.61 130.866 346.505 130.481 346.301 130.153C346.096 129.82 345.813 129.565 345.451 129.386C345.088 129.202 344.667 129.111 344.185 129.111C343.695 129.111 343.267 129.202 342.9 129.386C342.534 129.565 342.25 129.82 342.05 130.153C341.85 130.481 341.752 130.866 341.756 131.31C341.752 131.761 341.852 132.156 342.056 132.492C342.265 132.829 342.553 133.091 342.919 133.278C343.286 133.466 343.708 133.56 344.185 133.56ZM352.955 139.21L352.853 139.901C352.78 140.386 352.669 140.906 352.52 141.46C352.375 142.014 352.224 142.536 352.066 143.026C351.909 143.516 351.779 143.906 351.676 144.196H350.526C350.581 143.923 350.654 143.563 350.743 143.116C350.833 142.668 350.922 142.168 351.012 141.614C351.105 141.064 351.182 140.501 351.242 139.926L351.319 139.21H352.955ZM114.95 163H113.288L118.095 149.909H119.732L124.538 163H122.876L118.964 151.98H118.862L114.95 163ZM115.564 157.886H122.263V159.293H115.564V157.886ZM130.617 163H126.577V149.909H130.796C132.066 149.909 133.153 150.171 134.056 150.695C134.96 151.215 135.652 151.963 136.134 152.939C136.615 153.911 136.856 155.074 136.856 156.429C136.856 157.793 136.613 158.967 136.127 159.951C135.641 160.931 134.934 161.685 134.005 162.214C133.076 162.738 131.947 163 130.617 163ZM128.163 161.594H130.515C131.597 161.594 132.494 161.385 133.206 160.967C133.918 160.55 134.448 159.955 134.798 159.184C135.147 158.413 135.322 157.494 135.322 156.429C135.322 155.372 135.149 154.462 134.804 153.7C134.459 152.933 133.943 152.344 133.257 151.935C132.571 151.522 131.717 151.315 130.694 151.315H128.163V161.594ZM143.555 163H139.515V149.909H143.734C145.004 149.909 146.09 150.171 146.994 150.695C147.897 151.215 148.589 151.963 149.071 152.939C149.553 153.911 149.793 155.074 149.793 156.429C149.793 157.793 149.55 158.967 149.065 159.951C148.579 160.931 147.871 161.685 146.942 162.214C146.013 162.738 144.884 163 143.555 163ZM141.1 161.594H143.452C144.535 161.594 145.432 161.385 146.143 160.967C146.855 160.55 147.386 159.955 147.735 159.184C148.085 158.413 148.259 157.494 148.259 156.429C148.259 155.372 148.087 154.462 147.741 153.7C147.396 152.933 146.881 152.344 146.195 151.935C145.509 151.522 144.654 151.315 143.631 151.315H141.1V161.594ZM162.833 149.909V163H161.299L154.165 152.722H154.038V163H152.452V149.909H153.987L161.146 160.213H161.273V149.909H162.833ZM166.9 161.325C166.585 161.325 166.314 161.212 166.088 160.987C165.862 160.761 165.749 160.49 165.749 160.175C165.749 159.859 165.862 159.589 166.088 159.363C166.314 159.137 166.585 159.024 166.9 159.024C167.215 159.024 167.486 159.137 167.712 159.363C167.938 159.589 168.051 159.859 168.051 160.175C168.051 160.384 167.997 160.575 167.891 160.75C167.789 160.925 167.65 161.065 167.475 161.172C167.305 161.274 167.113 161.325 166.9 161.325ZM166.9 154.703C166.585 154.703 166.314 154.59 166.088 154.364C165.862 154.138 165.749 153.868 165.749 153.553C165.749 153.237 165.862 152.967 166.088 152.741C166.314 152.515 166.585 152.402 166.9 152.402C167.215 152.402 167.486 152.515 167.712 152.741C167.938 152.967 168.051 153.237 168.051 153.553C168.051 153.761 167.997 153.953 167.891 154.128C167.789 154.303 167.65 154.443 167.475 154.55C167.305 154.652 167.113 154.703 166.9 154.703ZM176.025 163V149.909H183.925V151.315H177.61V155.739H183.516V157.145H177.61V161.594H184.028V163H176.025ZM186.782 163V149.909H188.368V161.594H194.453V163H186.782ZM196.907 149.909H198.8L203.248 160.776H203.402L207.851 149.909H209.743V163H208.26V153.054H208.132L204.041 163H202.609L198.518 153.054H198.39V163H196.907V149.909ZM215.299 163L211.719 149.909H213.33L216.066 160.571H216.194L218.981 149.909H220.771L223.558 160.571H223.685L226.421 149.909H228.032L224.452 163H222.816L219.927 152.568H219.825L216.935 163H215.299ZM240.437 156.455C240.437 157.835 240.188 159.028 239.689 160.034C239.191 161.04 238.507 161.815 237.638 162.361C236.768 162.906 235.775 163.179 234.659 163.179C233.542 163.179 232.55 162.906 231.68 162.361C230.811 161.815 230.127 161.04 229.628 160.034C229.13 159.028 228.881 157.835 228.881 156.455C228.881 155.074 229.13 153.881 229.628 152.875C230.127 151.869 230.811 151.094 231.68 150.548C232.55 150.003 233.542 149.73 234.659 149.73C235.775 149.73 236.768 150.003 237.638 150.548C238.507 151.094 239.191 151.869 239.689 152.875C240.188 153.881 240.437 155.074 240.437 156.455ZM238.903 156.455C238.903 155.321 238.714 154.364 238.334 153.585C237.959 152.805 237.45 152.214 236.807 151.814C236.167 151.413 235.452 151.213 234.659 151.213C233.866 151.213 233.148 151.413 232.505 151.814C231.866 152.214 231.356 152.805 230.977 153.585C230.602 154.364 230.415 155.321 230.415 156.455C230.415 157.588 230.602 158.545 230.977 159.325C231.356 160.104 231.866 160.695 232.505 161.095C233.148 161.496 233.866 161.696 234.659 161.696C235.452 161.696 236.167 161.496 236.807 161.095C237.45 160.695 237.959 160.104 238.334 159.325C238.714 158.545 238.903 157.588 238.903 156.455ZM254.148 156.455C254.148 157.835 253.899 159.028 253.4 160.034C252.902 161.04 252.218 161.815 251.349 162.361C250.479 162.906 249.486 163.179 248.37 163.179C247.253 163.179 246.26 162.906 245.391 162.361C244.522 161.815 243.838 161.04 243.339 160.034C242.841 159.028 242.591 157.835 242.591 156.455C242.591 155.074 242.841 153.881 243.339 152.875C243.838 151.869 244.522 151.094 245.391 150.548C246.26 150.003 247.253 149.73 248.37 149.73C249.486 149.73 250.479 150.003 251.349 150.548C252.218 151.094 252.902 151.869 253.4 152.875C253.899 153.881 254.148 155.074 254.148 156.455ZM252.614 156.455C252.614 155.321 252.425 154.364 252.045 153.585C251.67 152.805 251.161 152.214 250.518 151.814C249.878 151.413 249.162 151.213 248.37 151.213C247.577 151.213 246.859 151.413 246.216 151.814C245.577 152.214 245.067 152.805 244.688 153.585C244.313 154.364 244.126 155.321 244.126 156.455C244.126 157.588 244.313 158.545 244.688 159.325C245.067 160.104 245.577 160.695 246.216 161.095C246.859 161.496 247.577 161.696 248.37 161.696C249.162 161.696 249.878 161.496 250.518 161.095C251.161 160.695 251.67 160.104 252.045 159.325C252.425 158.545 252.614 157.588 252.614 156.455ZM260.854 163H256.814V149.909H261.032C262.302 149.909 263.389 150.171 264.292 150.695C265.196 151.215 265.888 151.963 266.37 152.939C266.851 153.911 267.092 155.074 267.092 156.429C267.092 157.793 266.849 158.967 266.363 159.951C265.878 160.931 265.17 161.685 264.241 162.214C263.312 162.738 262.183 163 260.854 163ZM258.399 161.594H260.751C261.834 161.594 262.731 161.385 263.442 160.967C264.154 160.55 264.684 159.955 265.034 159.184C265.383 158.413 265.558 157.494 265.558 156.429C265.558 155.372 265.385 154.462 265.04 153.7C264.695 152.933 264.18 152.344 263.493 151.935C262.807 151.522 261.953 151.315 260.93 151.315H258.399V161.594ZM281.973 153.182C281.896 152.534 281.585 152.031 281.04 151.673C280.494 151.315 279.825 151.136 279.032 151.136C278.453 151.136 277.946 151.23 277.511 151.418C277.081 151.605 276.744 151.863 276.501 152.191C276.263 152.519 276.143 152.892 276.143 153.31C276.143 153.659 276.226 153.96 276.393 154.211C276.563 154.458 276.78 154.665 277.045 154.831C277.309 154.993 277.586 155.127 277.876 155.234C278.165 155.336 278.432 155.419 278.675 155.483L280.004 155.841C280.345 155.93 280.724 156.054 281.142 156.212C281.564 156.369 281.966 156.585 282.35 156.857C282.738 157.126 283.057 157.471 283.309 157.893C283.56 158.315 283.686 158.832 283.686 159.446C283.686 160.153 283.501 160.793 283.13 161.364C282.763 161.935 282.226 162.388 281.519 162.725C280.816 163.062 279.961 163.23 278.956 163.23C278.018 163.23 277.206 163.079 276.52 162.776C275.839 162.474 275.302 162.052 274.91 161.511C274.522 160.969 274.302 160.341 274.251 159.625H275.888C275.93 160.119 276.096 160.528 276.386 160.852C276.68 161.172 277.051 161.411 277.498 161.568C277.95 161.722 278.436 161.798 278.956 161.798C279.561 161.798 280.104 161.7 280.586 161.504C281.067 161.304 281.449 161.027 281.73 160.673C282.011 160.315 282.152 159.898 282.152 159.42C282.152 158.986 282.03 158.632 281.787 158.359C281.545 158.087 281.225 157.865 280.829 157.695C280.432 157.524 280.004 157.375 279.544 157.247L277.933 156.787C276.91 156.493 276.101 156.073 275.504 155.528C274.907 154.982 274.609 154.268 274.609 153.386C274.609 152.653 274.807 152.014 275.204 151.469C275.604 150.919 276.141 150.493 276.814 150.19C277.492 149.884 278.248 149.73 279.084 149.73C279.927 149.73 280.677 149.881 281.334 150.184C281.99 150.482 282.51 150.891 282.893 151.411C283.281 151.931 283.486 152.521 283.507 153.182H281.973ZM286.292 163V149.909H294.193V151.315H287.877V155.739H293.784V157.145H287.877V161.594H294.295V163H286.292ZM307.584 154H305.999C305.905 153.544 305.741 153.143 305.507 152.798C305.277 152.453 304.995 152.163 304.663 151.929C304.335 151.69 303.971 151.511 303.57 151.392C303.169 151.273 302.752 151.213 302.317 151.213C301.525 151.213 300.806 151.413 300.163 151.814C299.524 152.214 299.015 152.805 298.635 153.585C298.26 154.364 298.073 155.321 298.073 156.455C298.073 157.588 298.26 158.545 298.635 159.325C299.015 160.104 299.524 160.695 300.163 161.095C300.806 161.496 301.525 161.696 302.317 161.696C302.752 161.696 303.169 161.636 303.57 161.517C303.971 161.398 304.335 161.221 304.663 160.987C304.995 160.748 305.277 160.456 305.507 160.111C305.741 159.761 305.905 159.361 305.999 158.909H307.584C307.465 159.578 307.248 160.177 306.932 160.705C306.617 161.234 306.225 161.683 305.756 162.054C305.287 162.42 304.761 162.7 304.177 162.891C303.598 163.083 302.978 163.179 302.317 163.179C301.201 163.179 300.208 162.906 299.338 162.361C298.469 161.815 297.785 161.04 297.287 160.034C296.788 159.028 296.539 157.835 296.539 156.455C296.539 155.074 296.788 153.881 297.287 152.875C297.785 151.869 298.469 151.094 299.338 150.548C300.208 150.003 301.201 149.73 302.317 149.73C302.978 149.73 303.598 149.826 304.177 150.018C304.761 150.21 305.287 150.491 305.756 150.862C306.225 151.228 306.617 151.675 306.932 152.204C307.248 152.728 307.465 153.327 307.584 154ZM314.671 160.315V159.011L320.424 149.909H321.37V151.929H320.731L316.384 158.807V158.909H324.132V160.315H314.671ZM320.833 163V159.919V159.312V149.909H322.342V163H320.833Z" fill="black"/>
</svg>
