<svg width="67" height="50" viewBox="0 0 67 50" fill="none" xmlns="http://www.w3.org/2000/svg">
<g clip-path="url(#clip0_286_87)">
<path fill-rule="evenodd" clip-rule="evenodd" d="M16.1708 6.1931C13.4231 6.55714 10.5845 7.34004 8.68332 8.25834C6.97116 9.08537 5.18462 10.5226 4.16246 11.8954C3.08677 13.3399 2.22251 15.6752 2.01835 17.6887C1.86957 19.1565 2.16492 20.5648 2.86688 21.7347C3.25136 22.3755 4.1263 23.2523 4.74747 23.6194C5.68477 24.1731 7.00035 24.4278 8.15761 24.2794C9.76869 24.0727 10.8346 23.4417 11.3792 22.3721C11.4407 22.2513 11.9075 21.5598 11.9223 21.4981C11.9358 21.4414 11.8948 21.4569 11.8155 21.5186C11.7462 21.5725 11.6476 21.6618 11.5307 21.7688C11.3048 21.9758 11.0106 22.2494 10.7274 22.4632C9.71423 23.228 8.86164 23.571 7.72217 23.6722C6.46916 23.7836 5.45868 23.4178 4.50671 22.5083C2.87265 20.9471 2.48483 19.2498 3.17156 16.6648C3.77521 14.3924 4.67094 12.8173 6.26614 11.2231C7.24032 10.2495 8.01368 9.69045 9.18162 9.11548C10.6121 8.41124 12.3423 7.88696 14.6985 7.44355C16.9105 7.02732 19.1405 6.8804 20.8205 7.04014C22.6313 7.21233 24.758 7.78161 26.2752 8.50037C28.4371 9.52445 30.0956 11.4591 30.6224 13.5715C30.7961 14.268 30.7932 15.8601 30.6168 16.6203C30.1923 18.4494 29.2876 20.12 28.2724 20.949C27.1727 21.8472 25.7287 22.3713 23.3354 22.7409C21.5033 23.0239 18.3046 23.2728 17.9978 23.1564C17.8489 23.0998 17.8621 23.0546 18.4841 21.4965C18.8358 20.6156 19.6957 18.5014 20.395 16.7983C21.8226 13.3219 22.503 11.5403 22.5749 11.0902C22.6309 10.7396 22.6668 10.7273 21.9167 11.317C21.6926 11.4932 21.026 11.8795 20.4352 12.1755C19.1866 12.8011 19.294 12.6709 18.5003 14.5203C18.2399 15.1272 17.5056 16.825 16.8688 18.2932C16.2319 19.7614 15.4475 21.5873 15.1256 22.3508C13.4761 26.2638 11.1382 31.1037 9.62383 33.7405C7.96136 36.635 6.57188 38.1997 5.15643 38.7714C4.63435 38.9823 3.80262 39.1066 3.27933 39.0519C2.10527 38.9293 1.10461 37.9244 1.10276 36.8662C1.10183 36.3317 1.42573 35.667 1.79995 35.4353C2.19909 35.1883 3.05965 34.8961 3.52236 35.2013C3.704 35.3211 3.66473 35.6284 3.94947 35.5928C4.23422 35.5573 4.02066 35.2013 3.87829 35.0234C3.73592 34.8454 3.73592 34.6157 3.59824 34.5869C2.47173 34.3515 1.19978 34.9417 0.634355 35.9623C0.442723 36.3082 0.425781 36.3965 0.425781 37.0506C0.425781 37.6879 0.446924 37.8055 0.627237 38.1728C0.996264 38.9247 1.68057 39.4889 2.65026 39.8409C4.3699 40.4651 6.13623 40.0371 8.65179 38.3864L9.54509 37.8003L10.8939 38.4296C13.7867 39.7796 15.8549 40.4866 18.5069 41.032C19.7172 41.281 20.4274 41.3573 21.5323 41.3573C23.0904 41.3573 24.4998 41.1314 25.9474 40.6495C30.5054 39.1323 33.154 35.6238 32.9741 31.3418C32.8946 29.4475 32.2194 27.9716 30.8163 26.6246C29.5381 25.3974 28.3064 24.8367 25.8044 24.3427C25.198 24.2231 24.6737 24.0969 24.6391 24.0623C24.5624 23.9855 24.7899 23.92 26.2662 23.5933C28.0349 23.2019 28.7773 22.9933 29.446 22.7003C30.6598 22.1683 32.3514 21.1287 33.0199 20.5039C34.3645 19.2473 35.2375 16.6479 34.9884 14.6428C34.759 12.7969 33.9898 11.2432 32.639 9.89753C30.3965 7.66358 27.1095 6.38651 22.9205 6.1217C21.0147 6.00125 17.3243 6.04026 16.1708 6.1931ZM19.3284 24.1611C20.8408 24.3558 22.3923 24.6265 23.2534 24.8458C24.2888 25.1096 25.6437 25.7744 26.5153 26.4464C27.0067 26.8253 27.8401 27.6898 28.1431 28.135C28.4613 28.6024 28.8386 29.4219 28.9686 29.9276C29.2401 30.9843 29.1647 33.2036 28.822 34.2368C28.1037 36.4032 26.5193 38.3351 24.6462 39.3285C23.4215 39.978 22.2927 40.2184 20.468 40.2184C18.6351 40.2184 17.4081 40.0146 15.4497 39.3851C13.666 38.8117 10.6885 37.612 10.291 37.3067L10.1191 37.1745L10.3057 36.8635C10.4084 36.6923 10.6816 36.332 10.9126 36.0628C11.7945 35.0355 12.8784 33.0932 16.1951 26.5977C17.3862 24.2649 17.6183 23.8867 17.8211 23.9472C17.8851 23.9663 18.5633 24.0626 19.3284 24.1611Z" fill="#0E0D0D"/>
<path fill-rule="evenodd" clip-rule="evenodd" d="M9.93047 23.741C10.3838 23.5308 10.4467 23.5311 10.9607 23.0591C12.4606 21.6816 13.3229 20.021 13.7431 17.7008C14.0734 15.8774 13.9873 14.472 13.4227 12.4683C13.1309 11.4329 12.2175 9.4093 11.6488 8.53872C11.5322 8.36012 11.2053 7.90152 10.7135 6.90565C10.1731 6.08628 9.67767 6.89675 9.50337 6.97683C9.29727 7.07153 10.0373 7.93784 10.322 8.40055C10.3684 8.47597 10.1004 8.08564 10.8929 9.31512C11.3675 10.0516 12.0853 11.5139 12.3167 12.2162C12.8619 13.8701 13.48 15.6395 13.0271 17.5123C12.4096 20.0655 11.5611 22.2941 9.68133 23.2072L8.36432 23.5987L8.53327 23.6395L8.86288 24.1325L9.93047 23.741Z" fill="#0E0D0D"/>
<path d="M28.9365 0.569336C44.6971 0.569336 57.3046 11.3482 57.3047 24.4521C57.3047 37.5561 44.6971 48.335 28.9365 48.335C13.1761 48.3348 0.569336 37.556 0.569336 24.4521C0.569424 11.3483 13.1762 0.569545 28.9365 0.569336Z" stroke="#15616D" stroke-width="1.13897"/>
<path fill-rule="evenodd" clip-rule="evenodd" d="M47.5521 10.8353C45.2134 12.6235 43.1781 14.73 41.1516 17.459C39.5774 19.5792 37.0386 23.6383 35.5258 26.4538C34.8573 27.698 34.1734 28.7913 34.006 28.8835C33.8387 28.9759 32.4627 29.0885 30.9481 29.134C25.7866 29.2892 23.9491 29.6016 22.0837 30.6408C20.6875 31.4185 19.802 32.2305 19.0805 33.3949C18.2506 34.7346 18.0485 35.8853 18.3713 37.4358C18.6802 38.9193 19.1107 39.7143 19.8901 40.2412C21.8719 41.5808 25.2174 40.8499 28.6854 38.32C30.8146 36.7669 32.6511 34.7919 34.4832 32.0852L35.1956 31.0328L40.9011 29.5321C46.5354 28.0501 46.6065 28.0354 46.6005 28.3522C46.5973 28.5286 46.5948 28.8344 46.5948 29.032C46.5949 29.2295 46.464 32.1187 46.3039 35.4526C45.8913 44.0466 45.8437 42.8484 46.1257 42.9251C46.2571 42.9608 46.7683 42.4537 47.1935 42.0709L48.4393 41.0387L48.8891 35.2784L49.6712 27.3592L51.4815 26.9798C53.528 26.551 54.5513 26.1363 55.7212 25.2615C59.2088 22.6538 60.9915 18.0511 60.3266 13.3713C60.0435 11.38 58.6951 9.54863 57.1681 9.08188C56.0995 8.7552 54.7146 8.97949 53.6972 9.64402C52.9608 10.1252 51.6894 11.7268 50.8248 13.2625C50.5588 13.7349 50.2951 14.1335 50.239 14.1483C50.1827 14.1631 50.1732 13.5012 50.2178 12.6776C50.2623 11.854 50.243 10.8177 50.1747 10.3747L50.0505 9.56949L49.3982 9.74601C48.9898 9.85645 48.2994 10.2639 47.5521 10.8353ZM55.8492 12.2544C56.4501 12.5761 56.8306 13.432 57.1528 15.1866C57.4274 16.6826 57.2328 18.1847 56.5209 20.0628C55.6068 22.4748 53.7078 24.0787 50.8764 24.8308C49.8784 25.0958 49.7916 25.0938 49.7152 24.8031C49.6156 24.4246 49.9304 19.513 50.1376 18.2153C50.3069 17.1533 51.2874 15.388 52.4505 14.0504C53.9597 12.3152 54.9677 11.7824 55.8492 12.2544ZM47.539 14.7142C47.6476 15.1268 47.0741 23.6019 46.8103 25.4837L46.7203 26.1255L41.8167 27.3004C39.1195 27.9465 36.8518 28.4422 36.7772 28.4018C36.7026 28.3615 37.2482 27.3532 37.9897 26.1613C41.3175 20.8116 43.475 17.9615 45.9366 15.6633C46.9768 14.6921 47.4582 14.407 47.539 14.7142ZM26.7477 30.8708C28.6965 30.6325 32.6857 30.6664 32.6662 30.9212C32.6359 31.3161 30.8893 34.3426 30.2394 35.1259C28.5731 37.1343 26.8676 38.2223 24.2989 38.915C22.7589 39.3303 22.507 39.3581 21.7549 39.1965C20.5999 38.9482 20.1759 38.5599 19.7895 37.3959C19.3864 36.182 19.4542 35.7112 20.2074 34.4956C21.4583 32.4768 23.6781 31.2465 26.7477 30.8708Z" fill="#0E0D0D"/>
</g>
<defs>
<clipPath id="clip0_286_87">
<rect width="66.72" height="49.4096" fill="white"/>
</clipPath>
</defs>
</svg>
