<svg width="213" height="135" viewBox="0 0 213 135" fill="none" xmlns="http://www.w3.org/2000/svg">
<path d="M93.5058 2.95191C97.8694 1.87516 102.375 0.770433 103.519 0.497033L105.597 0L106.793 0.307246C108.632 0.780324 112.485 1.72524 117.81 3.00925C126.292 5.05456 132.069 6.46004 132.608 6.61027C132.896 6.69032 133.78 6.90221 134.573 7.08103C135.365 7.25984 137.369 7.74096 139.025 8.15021C142.011 8.88757 145.458 9.68752 153.038 11.4018C156.737 12.2384 162.547 13.5843 180.54 17.7728C184.718 18.7454 189.609 19.877 191.41 20.2878C205.537 23.5099 210.395 24.7308 211.487 25.3336C212.232 25.745 212.666 26.8208 212.654 28.2221C212.643 29.44 212.464 29.674 211.256 30.0422C210.345 30.3203 211.067 30.4455 201.625 28.3691C197.375 27.4345 192.896 26.4607 191.672 26.2051C188.626 25.5694 169.529 21.0582 166.658 20.2963C164.989 19.8535 157.983 18.1646 153.777 17.1914C151.354 16.6308 148.872 16.0375 148.261 15.8729C147.65 15.7083 147.099 15.5737 147.037 15.5737C146.974 15.5737 145.411 15.2002 143.563 14.7438C138.571 13.5103 134.114 12.4467 129.858 11.4732C122.891 9.87947 113.507 7.66028 111.846 7.21317C110.942 6.97006 109.111 6.55324 107.776 6.28679L105.349 5.80228L102.477 6.45155C100.898 6.80871 97.8382 7.50635 95.6774 8.00199C93.5165 8.49763 88.2126 9.68226 83.8909 10.6344C79.5692 11.5866 73.2044 13.0256 69.7471 13.8319C66.2897 14.6384 62.8716 15.4233 62.1513 15.5762C61.4311 15.7292 58.9559 16.2829 56.651 16.8067C52.4518 17.7611 49.9107 18.3091 35.0424 21.4673C30.6487 22.4007 26.4645 23.2961 25.7442 23.4573C25.0239 23.6184 22.0773 24.2335 19.1961 24.824L3.55468 28.1578C2.16859 28.5045 1.33253 28.4615 0.556719 28.0037C-0.24031 27.5334 -0.192115 27.0478 0.769662 25.8553C1.36396 25.1184 1.48104 25.0667 4.13562 24.3628C5.64822 23.9618 7.76979 23.4439 8.85022 23.2119C9.93064 22.9798 11.2861 22.6668 11.8623 22.5164C12.4385 22.3659 15.2673 21.6741 18.1484 20.9791C21.0296 20.2843 23.7405 19.6245 24.1727 19.513C26.3877 18.9421 30.4258 17.9692 32.1985 17.5795C34.8051 17.0062 42.0111 15.3135 43.0706 15.0254C43.5245 14.9019 43.9679 14.801 44.0557 14.801C44.1434 14.801 44.7149 14.665 45.3257 14.4985C46.7951 14.0984 61.0062 10.727 63.6291 10.1564C64.7606 9.91022 66.1876 9.5764 66.7999 9.41458C67.4126 9.25277 69.7405 8.68789 71.9734 8.15948C77.941 6.74689 82.9532 5.53645 84.2154 5.20309C84.8262 5.04174 85.3812 4.90975 85.4488 4.90975C85.5166 4.90975 89.1421 4.02882 93.5058 2.95191Z" fill="#0E0D0D"/>
<path fill-rule="evenodd" clip-rule="evenodd" d="M37.679 30.3426C31.0171 30.9709 23.5763 32.8669 18.839 35.1438C15.0352 36.9721 10.9663 40.1967 8.7045 43.1756C5.50986 47.3833 3.2961 54.5055 3.6765 59.3513C4.22586 66.3457 9.37194 71.3859 15.9494 71.372C18.9482 71.3657 21.6287 70.4977 23.3697 68.9691C24.2248 68.2184 25.2712 66.4066 25.0535 66.0543C24.9849 65.9432 24.4226 66.2734 23.8039 66.788C21.0767 69.0565 18.3194 70.0443 15.1425 69.8917C12.5949 69.769 11.1367 69.0699 8.98098 66.9377C5.39466 63.3905 4.7133 59.0849 6.73626 52.7535C8.11674 48.433 9.7905 45.56 12.7185 42.4846C16.8199 38.1769 20.8382 36.0526 28.2304 34.2841C38.8288 31.7485 46.541 31.7149 54.1341 34.1715C58.0288 35.4318 60.5128 36.7304 62.6164 38.6067C68.224 43.6081 69.7756 49.8716 67.1663 56.9756C64.6663 63.782 60.6787 66.5096 51.239 67.8699C46.3382 68.5762 39.359 69.0157 39.359 68.6182C39.359 68.4224 43.031 59.2966 45.2596 53.9535C48.6455 45.8362 50.3433 41.2398 50.0601 40.9568C49.9879 40.8846 49.4294 41.2858 48.8188 41.8486C47.9083 42.6879 44.7883 44.3792 42.946 45.0322C42.7408 45.1049 42.0698 46.3369 41.4547 47.7699C40.8395 49.2032 39.7336 51.7796 38.9973 53.4956C37.8146 56.251 36.3314 59.6593 35.0279 62.6156C34.7951 63.1436 33.9328 65.1956 33.1115 67.1756C31.2455 71.6746 27.4701 79.8219 24.7706 85.1756C17.6488 99.2996 13.4728 104.095 7.98762 104.446C5.84322 104.584 4.53834 104.15 3.24066 102.868C1.72866 101.374 1.29138 99.6296 2.00802 97.9479C2.92242 95.8021 4.51218 95.4351 8.07258 96.5487C10.547 97.3225 10.979 97.3957 11.6193 97.1499C12.0211 96.9958 12.1519 96.3356 11.7806 96.3356C11.6603 96.3356 10.8182 95.9141 9.90906 95.3989C7.1817 93.8535 4.72146 93.8862 2.3949 95.4985C-1.23774 98.0158 -0.611336 103.261 3.59562 105.551C7.92354 107.906 12.5147 107.125 18.6765 102.984L20.674 101.641L23.2365 102.854C30.1123 106.108 34.6435 107.653 41.4633 109.066C50.3834 110.914 60.3242 108.528 66.5745 103.04C70.1591 99.8919 72.4499 95.7416 73.1891 91.0556C74.1777 84.7909 72.2236 79.4741 67.4949 75.5629C64.7951 73.3294 61.4781 72.0584 55.9401 71.1349C54.6578 70.921 54.269 70.778 54.5467 70.6225C54.7586 70.5039 56.693 70.0405 58.8455 69.5924C60.9979 69.1446 63.3986 68.5378 64.1803 68.2441C67.3785 67.0426 72.3537 64.046 73.8561 62.4159C77.2111 58.7763 78.7811 52.4898 77.5499 47.6242C76.6283 43.9813 75.2368 41.5201 72.6184 38.9017C68.2075 34.4907 62.1472 31.8234 53.9654 30.692C50.7223 30.2437 40.9523 30.0339 37.679 30.3426ZM168.359 45.6699C167.056 46.0011 165.854 46.6957 165.104 47.5489C164.155 48.6303 163.919 49.2807 163.919 50.8165C163.919 52.4691 164.831 53.6417 166.565 54.2175C169.201 55.093 171.684 53.8599 172.978 51.0334C173.93 48.9555 173.43 46.7962 171.817 46.0158C171.019 45.6291 169.225 45.4498 168.359 45.6699ZM114.131 58.1086C113.794 59.4918 113.265 61.1864 113.081 61.4756C112.945 61.6899 112.551 61.4482 111.702 60.6303C109.753 58.7511 107.52 57.9433 104.264 57.9385C97.3999 57.9284 90.8687 62.6852 86.8951 70.5891C84.6266 75.1016 83.2744 80.1738 83.2847 84.1333C83.2917 86.7557 83.5396 87.9975 84.4113 89.7778C86.2826 93.5993 91.6615 95.6741 95.824 94.1794C98.4578 93.2338 101.347 91.3813 103.743 89.1025C104.279 88.5922 104.749 88.2058 104.788 88.2442C104.826 88.2824 104.767 88.9575 104.658 89.7445C104.373 91.7914 104.562 92.5806 105.628 93.7921C106.94 95.2825 108.413 95.9549 110 95.7884C112.377 95.539 115.608 93.9557 118.066 91.8356C119.368 90.7122 119.519 90.6442 119.519 91.1809C119.519 91.844 121.403 93.6058 122.934 94.3741C125.504 95.6641 127.112 95.9722 131.279 95.9739C135.342 95.9758 136.203 95.7982 139.175 94.345C144.61 91.6882 146.761 85.508 144.173 79.9887C143.132 77.7697 141.487 75.4753 138.944 72.6956C134.144 67.4494 133.406 64.203 136.343 61.2536C138.739 58.8469 142.966 58.7485 145.046 61.051C146.27 62.4053 146.35 62.8916 145.788 65.5397C145.632 66.2713 145.663 66.3109 146.511 66.47C147.705 66.6939 148.435 66.2626 149.065 64.9609C149.477 64.1113 149.545 63.6663 149.415 62.6854C149.053 59.9557 147.546 58.5169 144.291 57.7928C137.855 56.361 131.535 60.3771 130.194 66.7508C129.537 69.8763 130.479 72.8046 133.355 76.574C136.815 81.1088 137.842 84.2477 136.953 87.5756C135.907 91.49 133.257 93.8581 129.632 94.1175C125.679 94.4005 122.159 92.0945 122.159 89.2215C122.159 87.0291 124.262 84.4186 127.097 83.0919C128.77 82.309 130.138 82.2536 131.683 82.9059C132.395 83.2069 132.479 83.1891 132.935 82.6421C133.203 82.3196 133.426 81.9233 133.431 81.7618C133.447 81.1844 131.927 80.6593 130.199 80.6449C128.786 80.6329 128.254 80.755 126.853 81.4121C124.104 82.7014 122.642 84.0428 120.593 87.1563C117.731 91.5039 113.304 94.3136 111.129 93.1635C110.339 92.7454 109.217 91.0846 109.207 90.3173C109.197 89.5347 109.87 87.6137 112.403 81.1906C116.676 70.3594 120.255 60.0296 120.327 58.3208L120.359 57.5756L117.327 57.5086L114.294 57.4417L114.131 58.1086ZM181.846 59.0739L180.212 59.1581L179.734 60.2869C179.472 60.9077 178.889 62.2256 178.44 63.2156C177.991 64.2056 176.549 67.4456 175.235 70.4156C172.673 76.2094 171.591 78.5069 166.341 89.3053C164.481 93.1306 162.959 96.3421 162.959 96.4414C162.959 96.7789 168.528 96.1988 169.398 95.7709C169.802 95.5722 170.313 94.651 171.233 92.4625C174.988 83.5335 181.013 73.221 184.931 69.0183C188.411 65.2846 193.274 62.0763 195.824 61.8313C196.84 61.7336 196.964 61.7797 197.223 62.3485C197.822 63.6627 196.352 68.2702 192.966 75.6956C188.517 85.4521 187.596 88.136 187.574 91.4156C187.551 94.8058 188.563 96.6603 191.021 97.7281C192.388 98.3214 195.83 98.2352 197.837 97.5574C202.081 96.1246 207.619 90.667 210.151 85.4223C210.931 83.8069 211.266 81.6956 210.742 81.6956C210.622 81.6956 210.008 82.5865 209.376 83.6756C207.484 86.9384 206.409 88.4163 204.423 90.4856C201.408 93.6253 197.814 95.8556 195.77 95.8556C194.684 95.8556 194.031 95.3247 193.542 94.0455C193.173 93.0776 193.16 92.7625 193.431 91.2478C194.035 87.8648 196.183 82.2627 199.462 75.5139C204.244 65.6722 204.953 63.775 204.488 62.0509C203.94 60.0149 201.832 58.8956 198.548 58.8956C196.476 58.8956 194.653 59.4435 192.439 60.7313C189.077 62.6869 185.074 66.2823 182.739 69.4419C181.965 70.4902 181.309 71.3259 181.283 71.2993C181.256 71.2726 182.099 69.4779 183.155 67.3109C185.098 63.3267 186.719 59.6142 186.719 59.1493C186.719 58.9004 185.555 58.8824 181.846 59.0739ZM165.813 60.2017C165.755 60.2597 164.856 60.3301 163.817 60.3574C162.434 60.3941 161.821 60.5134 161.533 60.8019C161.316 61.0189 160.678 62.5417 160.115 64.1859C158.83 67.9409 157.602 70.9503 153.359 80.7356C148.732 91.4057 147.594 94.2694 147.431 95.641L147.292 96.8156H149.696C153.041 96.8156 153.543 96.6879 153.812 95.7663C155.133 91.2488 159.206 80.918 162.718 73.1756C164.575 69.0831 166.726 64.0155 167.405 62.1356C167.643 61.4756 167.928 60.8329 168.039 60.7076C168.149 60.5823 168.239 60.3932 168.239 60.2876C168.239 60.0903 166.003 60.0111 165.813 60.2017ZM107.887 61.1806C109.496 61.9839 111.012 63.7405 111.269 65.0986C111.456 66.0862 111.296 66.6281 108.956 72.9356C104.678 84.4683 103.817 86.3118 101.611 88.6498C99.0086 91.4086 95.9335 92.6139 93.6746 91.7602C90.7675 90.662 89.1611 85.441 90.0885 80.1039C91.1728 73.8615 94.3276 67.7446 98.7455 63.3176C101.268 60.7899 102.301 60.2998 104.887 60.403C106.06 60.4496 106.817 60.6459 107.887 61.1806ZM41.999 70.9059C46.414 71.4257 51.2572 72.3308 52.919 72.9464C58.9269 75.1721 62.9819 79.0863 64.3444 83.9756C64.8501 85.7895 64.786 91.0369 64.2362 92.8556C63.16 96.4148 61.6607 99.0046 59.2024 101.551C55.39 105.5 51.2793 107.136 45.1711 107.136C40.6115 107.136 36.5899 106.274 30.359 103.962C25.4397 102.137 22.079 100.62 22.079 100.224C22.079 99.8494 22.8556 98.737 23.9162 97.5927C25.4272 95.9622 29.2425 89.1159 34.8165 78.0325C38.3131 71.0797 38.6973 70.4194 39.1847 70.5233C39.4785 70.5862 40.745 70.7583 41.999 70.9059ZM198.886 98.7286C198.252 98.9763 197.273 99.5557 196.711 100.016C194.384 101.923 190.778 109.25 188.635 116.425C187.811 119.183 185.432 121.438 183.545 121.25C182.14 121.109 182.169 120.722 183.905 116.335C184.784 114.113 185.818 111.432 186.202 110.376C186.898 108.464 188.159 104.073 188.159 103.563C188.159 103.406 187.715 103.296 187.084 103.296C185.913 103.296 185.497 103.686 185.168 105.095C185.001 105.811 184.998 105.812 184.71 105.273C184.24 104.396 183.421 103.976 181.911 103.839C177.145 103.407 172.642 106.374 170.314 111.48C168.916 114.547 168.7 116.568 169.487 119.202C170.441 122.389 174.675 123.274 177.75 120.928C178.177 120.602 178.577 120.336 178.639 120.336C178.701 120.336 178.978 120.72 179.255 121.189C179.895 122.273 181.515 123.025 183.185 123.012C184.571 123.001 186.789 122.016 188.144 120.809L188.969 120.074L189.464 121.099C190.607 123.467 193.493 123.683 196.686 121.641L197.912 120.857L198.566 121.677C199.693 123.089 200.877 123.526 203.263 123.411C207.62 123.2 210.16 120.718 209.958 116.868C209.859 114.979 209.134 113.189 207.241 110.151C205.823 107.876 205.673 107.12 206.481 106.311C207.237 105.555 208.111 105.524 210.197 106.178C212.438 106.88 213.255 106.275 212.153 104.728C210.896 102.962 206.783 102.542 204.23 103.917C202.433 104.885 201.757 105.933 201.914 107.509C202.043 108.806 202.504 109.769 204.093 112.056C205.857 114.596 206.561 116.752 206.18 118.444C205.689 120.62 203.808 121.85 202.243 121.016C201.265 120.495 201.094 120.068 201.234 118.503C201.38 116.881 201.268 116.736 199.876 116.736C199.362 116.736 198.592 117.158 197.23 118.184C195.087 119.798 193.702 120.576 192.969 120.576C192.543 120.576 192.48 120.426 192.488 119.436C192.493 118.809 192.641 117.548 192.818 116.634C193.082 115.269 193.262 114.886 193.829 114.484C195.1 113.583 198.034 110.631 199.225 109.056C201.381 106.204 204.126 99.7978 203.685 98.6487C203.465 98.0763 200.426 98.127 198.886 98.7286ZM156.239 100.364C154.453 100.931 154.856 103.345 156.67 102.946C157.446 102.776 158.401 102.001 158.395 101.546C158.386 100.799 157.096 100.092 156.239 100.364ZM200.931 100.307C201.142 100.519 200.68 102.256 199.858 104.337C199.12 106.203 197.218 109.065 195.329 111.15C193.262 113.432 193.421 112.912 196.985 105.756C199.324 101.059 199.845 100.176 200.281 100.176C200.566 100.176 200.858 100.235 200.931 100.307ZM79.8439 101.24C74.6239 103.519 70.5547 106.704 63.6311 113.93C62.6587 114.945 61.7947 115.774 61.7111 115.773C61.6274 115.771 60.209 115.448 58.559 115.056C53.9719 113.964 51.8714 113.722 49.99 114.069C45.9319 114.817 43.4656 117.537 43.7407 120.962C43.8758 122.645 44.3287 123.418 45.604 124.144C49.0175 126.086 55.7579 123.993 61.0255 119.356L62.4787 118.077L68.5641 118.066L74.6495 118.056L74.4935 118.776C74.4076 119.172 73.5866 121.818 72.6691 124.656C71.7515 127.494 70.8043 130.48 70.5638 131.291C70.3235 132.103 70.0547 132.994 69.9667 133.271C69.8188 133.737 69.8968 133.776 70.9821 133.776H72.1574L74.2982 128.093C75.4756 124.968 76.7757 121.485 77.1871 120.353L77.9354 118.296L80.3071 118.373C82.2273 118.435 82.948 118.355 84.0916 117.954C87.8769 116.627 90.6523 113.549 91.9291 109.262C93.2493 104.829 91.6367 101.331 88.2571 101.296C86.5655 101.279 85.408 101.878 83.5939 103.71C82.774 104.538 82.0461 105.216 81.9763 105.216C81.9064 105.216 81.9427 104.972 82.0567 104.676C82.4755 103.585 83.039 101.439 83.039 100.934C83.039 100.171 82.0826 100.263 79.8439 101.24ZM98.759 101.507C98.627 101.546 98.0006 101.648 97.3667 101.733C96.0218 101.915 96.1919 101.607 94.6456 106.656C94.0593 108.57 93.1039 111.432 92.5223 113.016C91.9408 114.6 90.5339 118.542 89.3961 121.776C87.5121 127.13 86.003 131.307 85.559 132.396C85.4054 132.772 85.5633 132.816 87.0849 132.816C88.5887 132.816 88.8143 132.755 89.0651 132.287C89.4011 131.659 93.2623 120.019 93.7019 118.308L94.0072 117.121L94.3432 117.828C94.8652 118.928 96.2596 119.497 98.4165 119.489C101.944 119.478 104.821 117.398 107.211 113.134C108.813 110.277 109.381 105.776 108.359 104.041C108.095 103.592 107.594 103.014 107.246 102.754C105.811 101.685 102.882 102.083 100.372 103.688C99.6542 104.147 99.0275 104.484 98.9798 104.436C98.932 104.389 98.9882 103.761 99.1046 103.043C99.3134 101.752 99.2272 101.368 98.759 101.507ZM114.89 101.882C114.126 101.966 113.442 102.092 113.371 102.164C113.3 102.235 112.882 103.301 112.443 104.534C112.004 105.767 110.865 108.936 109.913 111.576C108.961 114.216 106.858 120.318 105.24 125.136L102.298 133.896L103.269 133.971C105.262 134.127 105.12 134.337 107.229 128.078C109.217 122.176 112.475 113.246 113.862 109.896C114.626 108.05 114.739 107.914 116.753 106.38C120.866 103.248 122.557 103.683 122.49 107.856C122.42 112.254 118.872 117.696 116.075 117.696C115.316 117.696 114.977 117.528 114.251 116.796C113.76 116.301 113.235 115.68 113.083 115.416C112.845 115.001 112.773 114.985 112.553 115.296C111.844 116.3 112.898 118.426 114.527 119.277C117.079 120.61 120.945 118.229 123.674 113.642C126.385 109.084 126.922 105.169 125.098 103.241C123.376 101.419 119.895 101.944 116.638 104.519C115.978 105.04 115.439 105.406 115.439 105.331C115.439 105.257 115.664 104.499 115.939 103.647C116.215 102.795 116.404 102.015 116.359 101.914C116.315 101.813 115.654 101.799 114.89 101.882ZM128.63 103.584C127.47 107.945 126.025 112.554 124.327 117.314C123.531 119.545 122.879 121.471 122.879 121.592C122.879 121.714 123.71 121.778 124.739 121.734L126.599 121.656L127.038 120.216C128.891 114.143 130.002 110.857 130.688 109.416C131.526 107.658 133.454 105.456 134.156 105.456C134.378 105.456 134.848 105.78 135.201 106.176C135.554 106.572 135.971 106.896 136.128 106.896C136.582 106.896 137.735 105.672 137.603 105.33C137.538 105.159 137.661 104.678 137.877 104.26C138.339 103.365 138.107 102.93 137.043 102.696C136.021 102.472 134.643 102.937 133.139 104.014C132.4 104.543 131.74 104.976 131.671 104.976C131.602 104.976 131.512 104.462 131.472 103.836L131.399 102.696L130.151 102.624L128.904 102.551L128.63 103.584ZM166.187 103.057C161.851 103.525 159.445 107.133 161.191 110.551C161.375 110.911 162.134 111.883 162.877 112.711C164.648 114.684 165.117 115.477 165.118 116.499C165.121 119.5 161.545 121.114 159.152 119.191L158.238 118.456L156.61 119.276C154.799 120.187 153.211 120.374 152.955 119.707C152.788 119.272 152.984 118.637 154.877 113.496C156.176 109.967 157.947 104.925 158.277 103.815C158.442 103.262 158.428 103.257 157.042 103.415C154.842 103.666 154.907 103.609 154.2 105.884C153.171 109.191 151.243 114.26 150.113 116.628C148.981 119 148.145 119.735 146.759 119.578C146.06 119.498 146.04 119.461 146.078 118.296C146.106 117.444 146.824 115.156 148.553 110.407C149.892 106.728 150.931 103.569 150.861 103.387C150.66 102.862 149.552 103.001 148.923 103.63L148.348 104.205L147.193 103.61C146.229 103.114 145.801 103.034 144.599 103.13C139.8 103.508 135.481 107.513 133.824 113.119C133.385 114.604 133.324 116.914 133.69 118.228C134.197 120.054 135.821 121.298 137.691 121.293C138.648 121.291 140.735 120.433 141.776 119.613L142.394 119.128L142.866 119.793C143.68 120.938 144.486 121.386 145.927 121.49C146.962 121.565 147.506 121.47 148.262 121.085C148.803 120.809 149.318 120.467 149.405 120.326C149.501 120.17 149.841 120.361 150.273 120.814C151.542 122.141 152.656 122.311 154.911 121.518L156.326 121.021L157.616 121.674C159.287 122.519 161.715 122.607 163.67 121.894C165.373 121.273 167.597 119.159 167.973 117.805C168.631 115.433 168.073 113.084 166.413 111.238C164.602 109.224 164.172 107.465 165.198 106.272C166.049 105.284 168.012 105.178 169.803 106.026C170.534 106.372 171.224 106.656 171.336 106.656C171.672 106.656 172.134 105.288 171.971 104.775C171.582 103.547 168.933 102.761 166.187 103.057ZM88.1123 104.715C88.6327 105.138 88.6778 105.348 88.6648 107.295C88.6519 109.2 88.5712 109.57 87.8711 110.936C86.1827 114.229 84.0448 115.734 80.6855 115.995C79.5839 116.081 78.6395 116.081 78.5867 115.996C78.4636 115.796 80.4362 109.904 80.9747 108.862C81.658 107.541 84.5253 105.16 86.1182 104.591C87.2968 104.17 87.4526 104.18 88.1123 104.715ZM105.018 105.396C105.461 106.43 105.353 108.906 104.784 110.756C103.841 113.823 101.579 116.677 99.5023 117.418C98.3395 117.834 97.109 117.602 96.5231 116.857C96.1286 116.356 96.0787 115.957 96.1555 113.926C96.2044 112.633 96.3667 111.198 96.5164 110.736C96.9119 109.514 97.9485 108.096 99.4478 106.726C101.038 105.272 102.531 104.496 103.736 104.496C104.544 104.496 104.671 104.585 105.018 105.396ZM79.0691 105.396C78.8877 106.257 75.5642 115.841 75.3645 116.078C75.28 116.178 72.7919 116.187 69.8351 116.098L64.4594 115.936L67.0891 113.447C71.327 109.436 74.339 107.105 77.3728 105.489C79.0999 104.569 79.2451 104.561 79.0691 105.396ZM146.011 105.247C146.752 105.584 147.225 106.672 147.013 107.551C146.753 108.631 145.462 111.893 144.373 114.224C143.262 116.603 142.271 117.639 140.443 118.337C139.13 118.839 138.345 118.598 137.562 117.452C137.054 116.709 137.004 116.427 137.114 114.936C137.54 109.164 142.575 103.681 146.011 105.247ZM182.816 106.25C183.346 106.78 183.25 107.947 182.494 110.169C180.696 115.457 178.648 118.649 176.303 119.819C172.318 121.806 170.881 115.49 174.218 110.648C175.558 108.704 177.643 106.826 179.285 106.085C180.308 105.623 182.282 105.716 182.816 106.25ZM54.4017 115.795C55.4342 115.937 57.1111 116.328 58.1282 116.663L59.9776 117.272L58.7287 118.691C56.2211 121.54 53.5022 122.952 50.1369 123.154C46.7843 123.355 45.3861 122.579 45.1826 120.404C45.0907 119.42 45.1756 119.118 45.7756 118.296C46.9043 116.748 49.2986 115.677 51.8817 115.564C52.235 115.548 53.369 115.652 54.4017 115.795Z" fill="#0E0D0D"/>
</svg>
